<?xml version="1.0" encoding="UTF-8"?>
<svg version="1.1" xmlns="http://www.w3.org/2000/svg" width="551" height="453">
<path d="M0 0 C0 0.66 0 1.32 0 2 C0.57621094 2.24363281 1.15242188 2.48726562 1.74609375 2.73828125 C4.40268648 4.22542068 6.03608589 5.91900945 8.0625 8.1875 C8.73410156 8.92355469 9.40570313 9.65960938 10.09765625 10.41796875 C14.59614051 16.52371432 16.29860463 23.91650614 18.3125 31.125 C18.61446289 32.20450928 18.91642578 33.28401855 19.22753906 34.39624023 C23.9560141 51.73687029 27.26197956 69.44962025 30.45703125 87.12890625 C30.89589089 89.449495 31.3921318 91.71910005 32 94 C32.33 93.34 32.66 92.68 33 92 C33.66 92 34.32 92 35 92 C35.25523437 91.2575 35.51046875 90.515 35.7734375 89.75 C39.54787877 81.28755844 48.46150202 76.01874748 56.609375 72.39453125 C66.08299522 68.94708874 79.32916127 69.42051704 88.6875 72.9375 C99.75753922 78.53577698 107.45636517 87.50460899 111.44140625 99.14453125 C114.81528175 110.35146034 113.6130343 122.2145355 108.375 132.5625 C102.27484128 143.1489405 92.84488958 150.74271931 81 154 C77.67530114 154.42490239 74.4109236 154.46555229 71.0625 154.4375 C70.22009766 154.45748047 69.37769531 154.47746094 68.50976562 154.49804688 C57.8848975 154.48986761 48.51538182 149.17193314 40.8671875 142 C35.10780628 135.86833939 29.70119147 128.38863379 28 120 C24.32512575 123.2508503 21.93733974 127.0436512 19.3671875 131.171875 C18.91601562 131.77515625 18.46484375 132.3784375 18 133 C17.34 133 16.68 133 16 133 C15.7215625 133.99 15.7215625 133.99 15.4375 135 C13.39191226 139.26905268 10.42815357 142.74163706 7 146 C6.34 146 5.68 146 5 146 C4.731875 146.639375 4.46375 147.27875 4.1875 147.9375 C3 150 3 150 0 151 C-0.33 151.99 -0.66 152.98 -1 154 C-2.875 155.75 -2.875 155.75 -5 157 C-9.06540996 155.64486335 -9.97300269 153.69203082 -12 150 C-11.78239109 147.35242499 -11.26095128 146.26731594 -9.3984375 144.359375 C-8.73070312 143.82828125 -8.06296875 143.2971875 -7.375 142.75 C0.5496545 136.08991803 6.61605156 127.82828024 12.79541016 119.58105469 C13.91087557 118.11697808 15.06903866 116.68570029 16.23046875 115.2578125 C16.87628906 114.43023437 17.52210938 113.60265625 18.1875 112.75 C18.75855469 112.04359375 19.32960938 111.3371875 19.91796875 110.609375 C21.58723914 106.58384208 20.75436468 103.2120331 20 99 C19.83040771 98.04174316 19.66081543 97.08348633 19.48608398 96.09619141 C18.89102324 92.8712314 18.26257945 89.654314 17.625 86.4375 C17.16884611 84.10945818 16.71311529 81.78133342 16.2578125 79.453125 C16.03899414 78.33744141 15.82017578 77.22175781 15.59472656 76.07226562 C15.10560635 73.54554611 14.63266774 71.01775273 14.1796875 68.484375 C11.60047691 54.07637102 8.4185973 39.79998164 3.875 25.875 C3.63354248 25.12299316 3.39208496 24.37098633 3.14331055 23.59619141 C1.93229602 20.02570793 0.8798989 17.47091917 -2 15 C-2 14.34 -2 13.68 -2 13 C-2.515625 12.7525 -3.03125 12.505 -3.5625 12.25 C-6 11 -6 11 -9 8.9375 C-15.40848281 5.2872721 -23.22481542 5.25723464 -30.25 7 C-38.8656714 10.12921185 -43.54906523 15.76135616 -47.49023438 23.91503906 C-57.93306646 47.28537708 -61.81326654 75.04394956 -62.57104492 100.44384766 C-62.75183065 105.27895937 -63.32396164 109.44070684 -65 114 C-67.375 115.5625 -67.375 115.5625 -70 116 C-72.0078125 115.44921875 -72.0078125 115.44921875 -74 114 C-75.34375 111.015625 -75.34375 111.015625 -76.5 107.25 C-76.81843872 106.23474243 -76.81843872 106.23474243 -77.14331055 105.19897461 C-78.4436494 101.00866807 -79.63264072 96.78816343 -80.8125 92.5625 C-82.58560387 86.21777891 -84.64315687 79.99119642 -86.75 73.75 C-90.71831994 61.97682255 -94.40468297 50.12927375 -98.01220703 38.24121094 C-99.01781475 34.94154508 -100.03660875 31.64618969 -101.05859375 28.3515625 C-101.70577035 26.25522105 -102.35290743 24.15886739 -103 22.0625 C-103.30301025 21.09111084 -103.60602051 20.11972168 -103.91821289 19.11889648 C-104.32994751 17.77807007 -104.32994751 17.77807007 -104.75 16.41015625 C-105.11351562 15.23658569 -105.11351562 15.23658569 -105.484375 14.03930664 C-106 12 -106 12 -106 9 C-99.375 6 -99.375 6 -96 6 C-92.83498664 13.36288822 -90.4359175 20.85883402 -88.19442749 28.54812622 C-87.22301891 31.8779039 -86.23526046 35.20280487 -85.24609375 38.52734375 C-85.05241714 39.17867783 -84.85874054 39.8300119 -84.65919495 40.50108337 C-82.68332417 47.11424157 -80.50868777 53.65078212 -78.28515625 60.18359375 C-76.39332615 65.74855017 -74.69068759 71.37100486 -73 77 C-72.89042969 76.23558594 -72.78085937 75.47117187 -72.66796875 74.68359375 C-63.94627043 15.75894898 -63.94627043 15.75894898 -43.1875 0.125 C-29.29258485 -8.90774273 -14.32204916 -7.49880876 0 0 Z M50 90 C50 90.66 50 91.32 50 92 C49.34 92 48.68 92 48 92 C44.36366461 95.47998507 44.36366461 95.47998507 43 100 C42.34 100 41.68 100 41 100 C39.63248693 101.34089747 39.63248693 101.34089747 38.375 103.125 C37.92898438 103.70507812 37.48296875 104.28515625 37.0234375 104.8828125 C35.58911636 107.84999593 35.62914315 109.71752237 36 113 C36.96386878 115.73178656 38.20162247 118.28827101 39.5 120.875 C39.83386719 121.56335938 40.16773438 122.25171875 40.51171875 122.9609375 C41.33071727 124.64573446 42.16393591 126.32360619 43 128 C43.66 128 44.32 128 45 128 C45.226875 128.556875 45.45375 129.11375 45.6875 129.6875 C49.61170229 136.6015707 56.64160069 140.53667319 64 143 C73.37240993 144.01757594 81.0822796 143.45154519 89 138 C89.65613281 137.55398438 90.31226563 137.10796875 90.98828125 136.6484375 C96.56032471 132.37693523 100.0185778 126.69920675 101.8125 119.9375 C102.51713067 108.89828609 101.29779535 100.64866385 94 92 C86.32115317 84.78188398 79.07247877 81.29481834 68.43359375 81.50390625 C61.48657389 82.50762812 55.7558727 86.16275153 50 90 Z " fill="#D8CA7C" transform="translate(376,151)"/>
<path d="M0 0 C0 0.33 0 0.66 0 1 C-6.75 1.125 -6.75 1.125 -9 0 C-11.54615009 -0.23172827 -14.07396225 -0.41894529 -16.625 -0.5625 C-17.33140625 -0.60568359 -18.0378125 -0.64886719 -18.765625 -0.69335938 C-20.51018537 -0.79944751 -22.25506697 -0.90022889 -24 -1 C-24.165 0.299375 -24.33 1.59875 -24.5 2.9375 C-24.5928125 3.66839844 -24.685625 4.39929688 -24.78125 5.15234375 C-25.01959535 6.85541732 -25.01959535 6.85541732 -25 8 C-23.02 8 -21.04 8 -19 8 C-19 8.33 -19 8.66 -19 9 C-19.94359375 9.20302734 -19.94359375 9.20302734 -20.90625 9.41015625 C-29.11605755 11.47497231 -34.19198935 14.67769061 -38.83984375 21.83203125 C-51.82297455 45.78122001 -55.76889101 76.55653078 -56.57104492 103.44384766 C-56.75183065 108.27895937 -57.32396164 112.44070684 -59 117 C-61.375 118.5625 -61.375 118.5625 -64 119 C-66.0078125 118.44921875 -66.0078125 118.44921875 -68 117 C-69.34375 114.015625 -69.34375 114.015625 -70.5 110.25 C-70.81843872 109.23474243 -70.81843872 109.23474243 -71.14331055 108.19897461 C-72.4436494 104.00866807 -73.63264072 99.78816343 -74.8125 95.5625 C-76.58560387 89.21777891 -78.64315687 82.99119642 -80.75 76.75 C-84.71831994 64.97682255 -88.40468297 53.12927375 -92.01220703 41.24121094 C-93.01781475 37.94154508 -94.03660875 34.64618969 -95.05859375 31.3515625 C-95.70577035 29.25522105 -96.35290743 27.15886739 -97 25.0625 C-97.30301025 24.09111084 -97.60602051 23.11972168 -97.91821289 22.11889648 C-98.32994751 20.77807007 -98.32994751 20.77807007 -98.75 19.41015625 C-99.11351562 18.23658569 -99.11351562 18.23658569 -99.484375 17.03930664 C-100 15 -100 15 -100 12 C-93.375 9 -93.375 9 -90 9 C-86.83498664 16.36288822 -84.4359175 23.85883402 -82.19442749 31.54812622 C-81.22301891 34.8779039 -80.23526046 38.20280487 -79.24609375 41.52734375 C-79.05241714 42.17867783 -78.85874054 42.8300119 -78.65919495 43.50108337 C-76.68332417 50.11424157 -74.50868777 56.65078212 -72.28515625 63.18359375 C-70.39332615 68.74855017 -68.69068759 74.37100486 -67 80 C-66.89042969 79.23558594 -66.78085937 78.47117187 -66.66796875 77.68359375 C-57.94627043 18.75894898 -57.94627043 18.75894898 -37.1875 3.125 C-25.47300177 -4.4903073 -12.92738469 -4.80486865 0 0 Z " fill="#AF8F4C" transform="translate(370,148)"/>
<path d="M0 0 C11.56961328 -0.02313398 23.1392211 -0.0409205 34.70885277 -0.05181217 C40.08064972 -0.05703868 45.45243089 -0.06413214 50.82421875 -0.07543945 C56.00482972 -0.08627654 61.18542548 -0.09227859 66.36604691 -0.09487724 C68.34606796 -0.09673 70.32608815 -0.10034778 72.30610275 -0.10573006 C75.07176283 -0.11295136 77.83735941 -0.11399048 80.60302734 -0.11352539 C81.42805252 -0.11712067 82.2530777 -0.12071594 83.10310364 -0.12442017 C88.77189568 -0.11405216 88.77189568 -0.11405216 91 1 C91 3.31 91 5.62 91 8 C77.14 8 63.28 8 49 8 C49 52.22 49 96.44 49 142 C46.36 142 43.72 142 41 142 C41 97.78 41 53.56 41 8 C27.47 8 13.94 8 0 8 C-0.92538169 4.29847322 -1.08174162 3.36541838 0 0 Z " fill="#A69E74" transform="translate(152,154)"/>
<path d="M0 0 C3 0.125 3 0.125 4 1.125 C4.10172494 2.45486842 4.13517028 3.79005163 4.14044189 5.12379456 C4.14615204 5.98553284 4.15186218 6.84727112 4.15774536 7.73512268 C4.15942215 9.16476601 4.15942215 9.16476601 4.16113281 10.62329102 C4.16858017 12.12114639 4.16858017 12.12114639 4.17617798 13.64926147 C4.19086012 16.97581664 4.19761638 20.30232391 4.203125 23.62890625 C4.20887745 25.94327292 4.21463517 28.25763958 4.22039795 30.57200623 C4.23092914 35.44213076 4.23675596 40.31223871 4.24023438 45.18237305 C4.24568254 51.38561643 4.26962203 57.58863622 4.29820633 63.79181004 C4.31696289 68.58347681 4.32204549 73.37509155 4.32357025 78.16679192 C4.32657488 80.45064435 4.33452825 82.73449635 4.34775543 85.01831245 C4.52799124 118.5709163 4.52799124 118.5709163 -5 133.125 C-5.66 133.125 -6.32 133.125 -7 133.125 C-7.33 134.115 -7.66 135.105 -8 136.125 C-9.453125 137.44140625 -9.453125 137.44140625 -11.25 138.6875 C-11.83265625 139.10128906 -12.4153125 139.51507813 -13.015625 139.94140625 C-22.89116638 145.831739 -34.65461002 145.83429674 -45.59375 143.59375 C-54.67255358 141.23998611 -62.87349981 136.14431101 -68 128.125 C-68.73046875 126.02734375 -68.73046875 126.02734375 -69 124.125 C-67.8125 122.3125 -67.8125 122.3125 -66 121.125 C-64.02734375 121.34765625 -64.02734375 121.34765625 -62 122.125 C-60.81526509 123.83628376 -59.63291635 125.54937228 -58.47265625 127.27734375 C-54.24698229 132.5790514 -47.61547827 135.34924359 -41 136.125 C-32.93747379 136.65369024 -26.36589936 136.53513859 -19 133.125 C-17.67325088 132.7663558 -16.3408787 132.42655132 -15 132.125 C-15 131.465 -15 130.805 -15 130.125 C-14.34 130.125 -13.68 130.125 -13 130.125 C-11.36093934 126.92311406 -9.86937874 123.6747325 -8.4375 120.375 C-8.00308594 119.39015625 -7.56867188 118.4053125 -7.12109375 117.390625 C-4.69877371 110.33466838 -4.84301096 102.97599924 -4.81054688 95.59399414 C-4.80225357 94.57030731 -4.79396027 93.54662048 -4.78541565 92.49191284 C-4.76809751 90.28267471 -4.75290873 88.07341906 -4.73963928 85.86415291 C-4.71852212 82.37247677 -4.691512 78.88088976 -4.66296387 75.38926697 C-4.5933219 66.72667918 -4.5335678 58.06402874 -4.47393799 49.40136719 C-4.42310143 42.0633642 -4.36834296 34.72541194 -4.30812073 27.38747978 C-4.28147292 23.93900411 -4.26071162 20.4905238 -4.2401123 17.04200745 C-4.2235207 14.94475066 -4.20664988 12.84749605 -4.18945312 10.75024414 C-4.18526871 9.78458023 -4.18108429 8.81891632 -4.17677307 7.82398987 C-4.16842941 6.95069031 -4.16008575 6.07739075 -4.15148926 5.17762756 C-4.14633553 4.4146338 -4.14118179 3.65164003 -4.13587189 2.86552525 C-3.89586697 -0.20894903 -3.124066 0.13016942 0 0 Z " fill="#DAC779" transform="translate(129,153.875)"/>
<path d="M0 0 C2.59009554 -0.24950462 4.9187129 -0.32719737 7.5 -0.25 C8.18964844 -0.24484375 8.87929688 -0.2396875 9.58984375 -0.234375 C14.69032948 -0.15483526 14.69032948 -0.15483526 17 1 C19.23393291 1.27169454 21.46760508 1.44477833 23.7109375 1.62109375 C26.13589449 2.02249448 27.8696298 2.79862685 30 4 C30 4.66 30 5.32 30 6 C30.57621094 6.24363281 31.15242188 6.48726562 31.74609375 6.73828125 C34.40268648 8.22542068 36.03608589 9.91900945 38.0625 12.1875 C38.73410156 12.92355469 39.40570313 13.65960938 40.09765625 14.41796875 C49.50257135 27.18316153 51.87065264 47.4565773 55 62.625 C55.21962402 63.66060059 55.43924805 64.69620117 55.66552734 65.76318359 C56.73845122 71.20309588 57.21688828 75.56963603 56 81 C55.34 81 54.68 81 54 81 C54.33 82.051875 54.66 83.10375 55 84.1875 C55.83966782 87.38873357 56.19750904 89.7411008 56 93 C55.01 93 54.02 93 53 93 C53 94.65 53 96.3 53 98 C51.68 97.67 50.36 97.34 49 97 C48.39451965 94.00025978 47.79037093 91.00026506 47.1875 88 C47.00372803 87.08661865 46.81995605 86.1732373 46.63061523 85.23217773 C45.55318838 79.85067706 44.53248081 74.46428967 43.5625 69.0625 C41.0807804 55.81331956 38.05871765 42.69704116 33.875 29.875 C33.63354248 29.12299316 33.39208496 28.37098633 33.14331055 27.59619141 C31.93229602 24.02570793 30.8798989 21.47091917 28 19 C28 18.34 28 17.68 28 17 C27.484375 16.7525 26.96875 16.505 26.4375 16.25 C23.86354212 14.9300216 21.42551941 13.44019584 18.9765625 11.90234375 C14.11288451 9.68196902 8.87369581 9.887984 3.625 9.9375 C2.37976563 9.94652344 1.13453125 9.95554688 -0.1484375 9.96484375 C-1.08945312 9.97644531 -2.03046875 9.98804688 -3 10 C-2.25 3.375 -2.25 3.375 0 0 Z " fill="#DED483" transform="translate(346,147)"/>
<path d="M0 0 C12.92813938 0.03604195 21.57059939 2.98219877 31 12.109375 C39.50731343 21.42988751 42.45416915 32.20665091 42.26953125 44.64453125 C41.67411942 56.15046264 36.62026681 65.8903318 28.1953125 73.72265625 C19.397341 81.01003264 10.9756827 83.94671266 -0.375 83.625 C-1.2928125 83.61146484 -2.210625 83.59792969 -3.15625 83.58398438 C-5.39646803 83.54898097 -7.63540594 83.49988869 -9.875 83.4375 C-9.875 83.1075 -9.875 82.7775 -9.875 82.4375 C-3.44 81.9425 -3.44 81.9425 3.125 81.4375 C4.10108217 78.50925348 4.20726668 76.48136724 4.125 73.4375 C6.765 73.1075 9.405 72.7775 12.125 72.4375 C11.465 71.7775 10.805 71.1175 10.125 70.4375 C11.32125 69.880625 12.5175 69.32375 13.75 68.75 C21.35449074 64.88740153 25.70448426 60.18883002 29.125 52.4375 C31.25881108 44.39467362 30.78523119 35.57419641 26.9375 28.14453125 C21.32459068 19.03880608 14.04846468 14.89444466 4.125 11.4375 C5.445 11.1075 6.765 10.7775 8.125 10.4375 C8.125 7.7975 8.125 5.1575 8.125 2.4375 C1.525 2.4375 -5.075 2.4375 -11.875 2.4375 C-8.595904 -0.841596 -4.46160802 0.00881816 0 0 Z " fill="#976A3E" transform="translate(446.875,221.5625)"/>
<path d="M0 0 C3.43290782 7.98610105 5.94575515 16.16386275 8.375 24.5 C9.16147265 27.17824277 9.95217963 29.85520397 10.74609375 32.53125 C10.93935745 33.18279053 11.13262115 33.83433105 11.33174133 34.50561523 C12.89163874 39.72365638 14.63001689 44.86385048 16.4375 50 C18.97188256 57.26354041 20.28356299 64.31683063 21 72 C20.34 72 19.68 72 19 72 C19 70.35 19 68.7 19 67 C16.50494038 69.49505962 16.64051624 70.67328888 16.375 74.125 C16.30023438 75.03507812 16.22546875 75.94515625 16.1484375 76.8828125 C16.09945313 77.58148438 16.05046875 78.28015625 16 79 C17.485 79.99 17.485 79.99 19 81 C19.29296875 84.2578125 19.29296875 84.2578125 19.1875 88.125 C19.16042969 89.40632813 19.13335937 90.68765625 19.10546875 92.0078125 C19.05326172 93.48894531 19.05326172 93.48894531 19 95 C16.50514161 92.50514161 16.26373614 90.78874347 15.375 87.375 C13.5535029 80.75014759 11.45324684 74.25721477 9.25 67.75 C5.2805348 55.9772332 1.5953041 44.12923114 -2.01220703 32.24121094 C-3.01781475 28.94154508 -4.03660875 25.64618969 -5.05859375 22.3515625 C-5.70577035 20.25522105 -6.35290743 18.15886739 -7 16.0625 C-7.30301025 15.09111084 -7.60602051 14.11972168 -7.91821289 13.11889648 C-8.19270264 12.22501221 -8.46719238 11.33112793 -8.75 10.41015625 C-8.99234375 9.62777588 -9.2346875 8.84539551 -9.484375 8.03930664 C-10 6 -10 6 -10 3 C-3.375 0 -3.375 0 0 0 Z " fill="#9D7238" transform="translate(280,157)"/>
<path d="M0 0 C5.94510801 0.09337866 11.88980119 0.19943682 17.83447266 0.31738281 C19.85784666 0.35572521 21.88129006 0.39056871 23.90478516 0.421875 C26.80917203 0.46741169 29.71307894 0.52542409 32.6171875 0.5859375 C33.52556366 0.59748871 34.43393982 0.60903992 35.36984253 0.62094116 C36.63092331 0.6507457 36.63092331 0.6507457 37.91748047 0.68115234 C39.03000687 0.70113785 39.03000687 0.70113785 40.16500854 0.7215271 C42 1 42 1 44 3 C43.34 3 42.68 3 42 3 C42 3.99 42 4.98 42 6 C42.66 6 43.32 6 44 6 C44 7.32 44 8.64 44 10 C44.99 10 45.98 10 47 10 C47 52.9 47 95.8 47 140 C45.68 140 44.36 140 43 140 C43 96.44 43 52.88 43 8 C28.81 8 14.62 8 0 8 C-0.92538169 4.29847322 -1.08174162 3.36541838 0 0 Z " fill="#C3A561" transform="translate(152,154)"/>
<path d="M0 0 C0.33 0 0.66 0 1 0 C1 4.62 1 9.24 1 14 C1.66 14 2.32 14 3 14 C3.33 13.34 3.66 12.68 4 12 C4.66 12 5.32 12 6 12 C5.39644592 15.85025879 4.23227397 18.86101159 2.4375 22.3125 C1.98246094 23.19550781 1.52742188 24.07851563 1.05859375 24.98828125 C0.53458984 25.98408203 0.53458984 25.98408203 0 27 C-0.66 27 -1.32 27 -2 27 C-2.495 28.485 -2.495 28.485 -3 30 C-4.453125 31.31640625 -4.453125 31.31640625 -6.25 32.5625 C-6.83265625 32.97628906 -7.4153125 33.39007813 -8.015625 33.81640625 C-17.89116638 39.706739 -29.65461002 39.70929674 -40.59375 37.46875 C-49.67255358 35.11498611 -57.87349981 30.01931101 -63 22 C-63.73046875 19.90234375 -63.73046875 19.90234375 -64 18 C-62.8125 16.1875 -62.8125 16.1875 -61 15 C-59.02734375 15.22265625 -59.02734375 15.22265625 -57 16 C-55.81526509 17.71128376 -54.63291635 19.42437228 -53.47265625 21.15234375 C-49.24698229 26.4540514 -42.61547827 29.22424359 -36 30 C-27.93747379 30.52869024 -21.36589936 30.41013859 -14 27 C-12.67325088 26.6413558 -11.3408787 26.30155132 -10 26 C-10 25.34 -10 24.68 -10 24 C-9.34 24 -8.68 24 -8 24 C-4.04600046 16.27590788 -0.50452209 8.74504957 0 0 Z " fill="#C8AE64" transform="translate(124,260)"/>
<path d="M0 0 C2.36367676 3.54551514 2.86690284 6.82648399 3.5625 10.9375 C4.59263488 17.0086842 4.59263488 17.0086842 6 23 C6.33 22.34 6.66 21.68 7 21 C7.66 21 8.32 21 9 21 C9.25523437 20.2575 9.51046875 19.515 9.7734375 18.75 C12.87058513 11.80607664 20.15978653 6.11721905 27 3 C35.01608473 0.4049624 44.86088837 -0.4108743 53 2 C53.79953138 5.28696233 54.09658936 6.71023192 53 10 C51.87722656 10.15855469 50.75445312 10.31710938 49.59765625 10.48046875 C38.60492255 12.12293107 38.60492255 12.12293107 28.6640625 16.9140625 C27 18 27 18 24 19 C24 19.66 24 20.32 24 21 C23.34 21 22.68 21 22 21 C21.731875 21.5775 21.46375 22.155 21.1875 22.75 C19.97070811 25.05550043 18.69666121 27.02056192 17 29 C16.34 29 15.68 29 15 29 C13.13448574 32.58752742 11.57464072 36.27812193 10 40 C9.67 40 9.34 40 9 40 C9 38.02 9 36.04 9 34 C9.66 34 10.32 34 11 34 C11.33 30.7 11.66 27.4 12 24 C12.66 24 13.32 24 14 24 C13.67 23.01 13.34 22.02 13 21 C13.66 20.34 14.32 19.68 15 19 C14.34 18.67 13.68 18.34 13 18 C12.443125 19.134375 11.88625 20.26875 11.3125 21.4375 C9.38181019 24.86983743 9.38181019 24.86983743 6.25 25.9375 C5.5075 25.958125 4.765 25.97875 4 26 C3.51171875 23.98177083 3.0234375 21.96354167 2.53515625 19.9453125 C2.05153008 17.9414343 2.05153008 17.9414343 1 16 C0.7677354 13.28737884 0.58063765 10.59226874 0.4375 7.875 C0.39431641 7.12089844 0.35113281 6.36679688 0.30664062 5.58984375 C0.2005168 3.72678112 0.09974999 1.86341476 0 0 Z " fill="#CDB76D" transform="translate(402,222)"/>
<path d="M0 0 C13.32167862 0.03713909 21.55212479 3.27419694 31.359375 12.44921875 C33.125 14.4375 33.125 14.4375 33.125 16.4375 C31.145 16.4375 29.165 16.4375 27.125 16.4375 C26.21348633 19.42494653 25.82673356 20.85012889 27.26953125 23.69140625 C27.81996094 24.45324219 28.37039063 25.21507812 28.9375 26 C33.4900725 33.14191444 34.86783161 40.50635753 33.5 48.875 C32.51546823 52.90321495 30.88696962 55.3191472 28.125 58.4375 C27.980625 59.2625 27.83625 60.0875 27.6875 60.9375 C27.03219717 63.84995704 25.82959326 64.87082431 23.66796875 66.8359375 C20.33623167 70.29419624 17.8016352 74.46497226 15.125 78.4375 C15.785 78.7675 16.445 79.0975 17.125 79.4375 C15.145 79.4375 13.165 79.4375 11.125 79.4375 C11.125 80.0975 11.125 80.7575 11.125 81.4375 C8.485 81.4375 5.845 81.4375 3.125 81.4375 C3.455 80.4475 3.785 79.4575 4.125 78.4375 C4.16374921 76.77128384 4.1700286 75.10355828 4.125 73.4375 C6.765 73.1075 9.405 72.7775 12.125 72.4375 C11.465 71.7775 10.805 71.1175 10.125 70.4375 C11.32125 69.880625 12.5175 69.32375 13.75 68.75 C21.35449074 64.88740153 25.70448426 60.18883002 29.125 52.4375 C31.25881108 44.39467362 30.78523119 35.57419641 26.9375 28.14453125 C21.32459068 19.03880608 14.04846468 14.89444466 4.125 11.4375 C5.445 11.1075 6.765 10.7775 8.125 10.4375 C8.125 7.7975 8.125 5.1575 8.125 2.4375 C1.525 2.4375 -5.075 2.4375 -11.875 2.4375 C-8.595904 -0.841596 -4.46160802 0.00881816 0 0 Z " fill="#9F7646" transform="translate(446.875,221.5625)"/>
<path d="M0 0 C2.19007792 2.19007792 3.23836623 4.17639592 4.625 6.9375 C5.07101562 7.81277344 5.51703125 8.68804687 5.9765625 9.58984375 C7 12 7 12 7 15 C7.66 15 8.32 15 9 15 C9.556875 15.886875 10.11375 16.77375 10.6875 17.6875 C14.63412509 23.86229349 21.00777162 27.18394238 28 29 C31.51338667 29.33248535 34.97520113 29.28740346 38.5 29.1875 C39.4178125 29.17396484 40.335625 29.16042969 41.28125 29.14648438 C43.52146803 29.11148097 45.76040594 29.06238869 48 29 C47.67 29.66 47.34 30.32 47 31 C44.36 31 41.72 31 39 31 C39.185625 31.969375 39.37125 32.93875 39.5625 33.9375 C39.706875 34.948125 39.85125 35.95875 40 37 C39.67 37.33 39.34 37.66 39 38 C40.65 38.33 42.3 38.66 44 39 C44 39.33 44 39.66 44 40 C40.68780768 40.117791 37.37616508 40.18777155 34.0625 40.25 C32.67321289 40.30027344 32.67321289 40.30027344 31.25585938 40.3515625 C21.09020345 40.49423837 13.5217266 36.67917067 6 30 C1.74447242 25.73594431 -1.63867053 21.55606934 -4 16 C-2.35 16.33 -0.7 16.66 1 17 C1.86964804 13.52140783 1.97534902 11.41372156 1 8 C0.61533719 5.33813335 0.31171127 2.67181089 0 0 Z " fill="#C4AC67" transform="translate(412,264)"/>
<path d="M0 0 C0 0.33 0 0.66 0 1 C-6.75 1.125 -6.75 1.125 -9 0 C-11.54615009 -0.23172827 -14.07396225 -0.41894529 -16.625 -0.5625 C-17.33140625 -0.60568359 -18.0378125 -0.64886719 -18.765625 -0.69335938 C-20.51018537 -0.79944751 -22.25506697 -0.90022889 -24 -1 C-24.165 0.299375 -24.33 1.59875 -24.5 2.9375 C-24.63921875 4.03384766 -24.63921875 4.03384766 -24.78125 5.15234375 C-25.01959535 6.85541732 -25.01959535 6.85541732 -25 8 C-23.02 8 -21.04 8 -19 8 C-19 8.33 -19 8.66 -19 9 C-19.6290625 9.13535156 -20.258125 9.27070313 -20.90625 9.41015625 C-28.25864996 11.25932913 -33.93291409 13.9869523 -38.00585938 20.64404297 C-40.74067237 25.57543449 -43.21522639 30.64567918 -45 36 C-45.66 36 -46.32 36 -47 36 C-47.66 38.31 -48.32 40.62 -49 43 C-49.99 43 -50.98 43 -52 43 C-54.88024857 34.35925429 -53.18318842 24.5280945 -49.3125 16.5 C-43.33592355 6.84044102 -35.73225545 0.46417899 -24.703125 -2.49609375 C-15.98815506 -4.1207052 -8.24718638 -3.06532591 0 0 Z " fill="#BEA058" transform="translate(370,148)"/>
<path d="M0 0 C3.26924334 3.26924334 3.34230969 6.16772194 3.68359375 10.5390625 C4.19887307 14.54679054 5.58368541 18.23206873 7 22 C8.32 22 9.64 22 11 22 C11.28875 21.236875 11.5775 20.47375 11.875 19.6875 C13 17 13 17 15 14 C15.99 14.66 16.98 15.32 18 16 C17.67 16.66 17.34 17.32 17 18 C16.67 18.99 16.34 19.98 16 21 C15.34 21 14.68 21 14 21 C13.67 24.3 13.34 27.6 13 31 C12.34 31 11.68 31 11 31 C11.47766899 33.58361841 11.95707792 36.16689338 12.4375 38.75 C12.57220703 39.47960937 12.70691406 40.20921875 12.84570312 40.9609375 C13.59679492 45.03738779 13.59679492 45.03738779 14.54321289 49.07128906 C15.099107 51.41846357 15.06675456 53.59683584 15 56 C13.515 56.495 13.515 56.495 12 57 C9.75928214 55.2206064 9.05608903 54.30113374 8.5234375 51.44140625 C8.47445313 50.49136719 8.42546875 49.54132813 8.375 48.5625 C8.03275089 42.57314066 7.04071899 38.26278287 4 33 C3.01 32.67 2.02 32.34 1 32 C1 31.01 1 30.02 1 29 C0.34 29 -0.32 29 -1 29 C-1.33 30.32 -1.66 31.64 -2 33 C-3.33583899 28.15758367 -4.25328119 24.06562383 -4 19 C-3.34 18.67 -2.68 18.34 -2 18 C-1.67 17.01 -1.34 16.02 -1 15 C-0.01 15 0.98 15 2 15 C1.77183594 14.16855469 1.54367187 13.33710938 1.30859375 12.48046875 C0.87740234 10.85044922 0.87740234 10.85044922 0.4375 9.1875 C0.14746094 8.10855469 -0.14257812 7.02960938 -0.44140625 5.91796875 C-1 3 -1 3 0 0 Z " fill="#D5CC79" transform="translate(400,225)"/>
<path d="M0 0 C5.94510801 0.09337866 11.88980119 0.19943682 17.83447266 0.31738281 C19.85784666 0.35572521 21.88129006 0.39056871 23.90478516 0.421875 C26.80917203 0.46741169 29.71307894 0.52542409 32.6171875 0.5859375 C33.52556366 0.59748871 34.43393982 0.60903992 35.36984253 0.62094116 C36.63092331 0.6507457 36.63092331 0.6507457 37.91748047 0.68115234 C39.03000687 0.70113785 39.03000687 0.70113785 40.16500854 0.7215271 C42 1 42 1 44 3 C43.34 3 42.68 3 42 3 C42 4.65 42 6.3 42 8 C28.14 8 14.28 8 0 8 C-0.92538169 4.29847322 -1.08174162 3.36541838 0 0 Z " fill="#C0B077" transform="translate(152,154)"/>
<path d="M0 0 C6.51447727 -0.02529705 13.02894193 -0.04284444 19.54345703 -0.05493164 C21.76090976 -0.05996909 23.97835916 -0.06679922 26.19580078 -0.07543945 C29.37793805 -0.08753072 32.56003151 -0.0932341 35.7421875 -0.09765625 C36.73805878 -0.10281754 37.73393005 -0.10797882 38.75997925 -0.11329651 C39.68078278 -0.11337204 40.6015863 -0.11344757 41.55029297 -0.11352539 C42.3630368 -0.115746 43.17578064 -0.11796661 44.01315308 -0.12025452 C46 0 46 0 48 1 C48 3.31 48 5.62 48 8 C34.14 8 20.28 8 6 8 C6 7.67 6 7.34 6 7 C9.465 6.505 9.465 6.505 13 6 C13 4.35 13 2.7 13 1 C8.71 1 4.42 1 0 1 C0 0.67 0 0.34 0 0 Z " fill="#9B7B56" transform="translate(195,154)"/>
<path d="M0 0 C2.59009554 -0.24950462 4.9187129 -0.32719737 7.5 -0.25 C8.18964844 -0.24484375 8.87929688 -0.2396875 9.58984375 -0.234375 C14.69032948 -0.15483526 14.69032948 -0.15483526 17 1 C19.23393291 1.27169454 21.46760508 1.44477833 23.7109375 1.62109375 C26.13589449 2.02249448 27.8696298 2.79862685 30 4 C30 4.66 30 5.32 30 6 C28.35 6 26.7 6 25 6 C25.33 8.97 25.66 11.94 26 15 C27.32 14.67 28.64 14.34 30 14 C30 15.32 30 16.64 30 18 C30.66 18.33 31.32 18.66 32 19 C31.34 19.66 30.68 20.32 30 21 C29.7525 20.38125 29.505 19.7625 29.25 19.125 C27.71894724 16.5222103 26.74861939 16.18859217 24 15 C20.625 12.9375 20.625 12.9375 18.9765625 11.90234375 C14.11288451 9.68196902 8.87369581 9.887984 3.625 9.9375 C2.37976563 9.94652344 1.13453125 9.95554688 -0.1484375 9.96484375 C-1.08945312 9.97644531 -2.03046875 9.98804688 -3 10 C-2.25 3.375 -2.25 3.375 0 0 Z " fill="#DFCE77" transform="translate(346,147)"/>
<path d="M0 0 C0.25002209 1.74714233 0.47423194 3.49799141 0.6875 5.25 C0.81511719 6.22453125 0.94273437 7.1990625 1.07421875 8.203125 C0.98668788 11.50165663 0.31143311 12.69405723 -2 15 C-2.66 15 -3.32 15 -4 15 C-4.268125 15.639375 -4.53625 16.27875 -4.8125 16.9375 C-6 19 -6 19 -9 20 C-9.33 20.99 -9.66 21.98 -10 23 C-11.875 24.75 -11.875 24.75 -14 26 C-18.06540996 24.64486335 -18.97300269 22.69203082 -21 19 C-20.70079058 15.32191344 -19.01612611 13.68654121 -16.3125 11.3125 C-12.95640934 8.48249923 -10.51129588 7.1127824 -6 7 C-5.896875 6.21625 -5.79375 5.4325 -5.6875 4.625 C-4.82572663 1.33459258 -3.53157582 0 0 0 Z " fill="#EFE78E" transform="translate(385,282)"/>
<path d="M0 0 C2.93335877 1.12473679 3.85812676 3.39657144 5.5390625 5.92578125 C8.92973349 10.14409634 13.78537722 12.67991646 19.02734375 13.77734375 C19.02734375 14.43734375 19.02734375 15.09734375 19.02734375 15.77734375 C19.68734375 15.77734375 20.34734375 15.77734375 21.02734375 15.77734375 C21.02734375 16.43734375 21.02734375 17.09734375 21.02734375 17.77734375 C22.67734375 17.77734375 24.32734375 17.77734375 26.02734375 17.77734375 C25.03734375 18.10734375 24.04734375 18.43734375 23.02734375 18.77734375 C23.02734375 19.43734375 23.02734375 20.09734375 23.02734375 20.77734375 C29.95734375 21.27234375 29.95734375 21.27234375 37.02734375 21.77734375 C37.02734375 22.10734375 37.02734375 22.43734375 37.02734375 22.77734375 C25.54546717 24.68715488 15.08145214 22.94966833 5.2578125 16.5234375 C0.73445897 12.98238841 -4.19965313 8.74941621 -4.97265625 2.77734375 C-3.46704061 0.47929883 -2.79626154 -0.31561764 0 0 Z " fill="#876536" transform="translate(64.97265625,275.22265625)"/>
<path d="M0 0 C2.83516316 6.4875204 5.12435647 13.14770409 7.3125 19.875 C7.59109863 20.70749268 7.86969727 21.53998535 8.15673828 22.39770508 C8.41052246 23.19200928 8.66430664 23.98631348 8.92578125 24.8046875 C9.15692627 25.51608887 9.38807129 26.22749023 9.6262207 26.96044922 C10.05212307 29.28441287 9.72668476 30.77333529 9 33 C8.34 30.69 7.68 28.38 7 26 C6.34 26 5.68 26 5 26 C4.67 24.02 4.34 22.04 4 20 C3.34 20 2.68 20 2 20 C2 20.66 2 21.32 2 22 C1.34 22 0.68 22 0 22 C0 18.33333333 0 14.66666667 0 11 C-0.66 12.65 -1.32 14.3 -2 16 C-2.66 16 -3.32 16 -4 16 C-3.54625 17.03125 -3.0925 18.0625 -2.625 19.125 C-0.31702411 25.18480398 0.23579091 31.59862503 1 38 C-1.36539382 35.63460618 -1.73602415 34.06635289 -2.65625 30.87109375 C-2.95660156 29.83533203 -3.25695312 28.79957031 -3.56640625 27.73242188 C-3.87449219 26.64509766 -4.18257813 25.55777344 -4.5 24.4375 C-4.80808594 23.37724609 -5.11617188 22.31699219 -5.43359375 21.22460938 C-7.17006614 15.18421937 -8.70913467 9.15097328 -10 3 C-3.375 0 -3.375 0 0 0 Z " fill="#916A36" transform="translate(280,157)"/>
<path d="M0 0 C3.17040988 3.17040988 3.80561214 7.26756009 5.0625 11.5 C5.33126953 12.36109375 5.60003906 13.2221875 5.87695312 14.109375 C7.66430668 20.06424868 8.60611268 25.79773202 9 32 C8.34 32 7.68 32 7 32 C7 30.35 7 28.7 7 27 C4.50494038 29.49505962 4.64051624 30.67328888 4.375 34.125 C4.30023438 35.03507812 4.22546875 35.94515625 4.1484375 36.8828125 C4.09945313 37.58148438 4.05046875 38.28015625 4 39 C4.99 39.66 5.98 40.32 7 41 C7.29296875 44.2578125 7.29296875 44.2578125 7.1875 48.125 C7.16042969 49.40632813 7.13335937 50.68765625 7.10546875 52.0078125 C7.07066406 52.99523437 7.03585937 53.98265625 7 55 C4.44773073 52.44773073 4.17051387 50.4882631 3.25 47 C2.07475802 42.68333174 0.83645784 38.43817774 -0.62890625 34.2109375 C-1.0460791 33.00630859 -1.0460791 33.00630859 -1.47167969 31.77734375 C-2.02506869 30.19623231 -2.58671294 28.61798208 -3.15722656 27.04296875 C-4.47889135 23.24759083 -5.23739749 20.84056645 -4 17 C-3.566875 17.804375 -3.13375 18.60875 -2.6875 19.4375 C-1.19525998 22.27846354 -1.19525998 22.27846354 2 23 C2.33 19.04 2.66 15.08 3 11 C2.34 11 1.68 11 1 11 C0.67 7.37 0.34 3.74 0 0 Z " fill="#A47F42" transform="translate(292,197)"/>
<path d="M0 0 C2.77532898 -0.46255483 4.31575297 -0.65973051 7 0 C11.7169062 3.48051786 15.22992888 7.35733675 17 13 C17 15.33333333 17 17.66666667 17 20 C17.88064927 22.35369807 17.88064927 22.35369807 19 24 C18.01 23.67 17.02 23.34 16 23 C15.34 23.99 14.68 24.98 14 26 C13.01 25.67 12.02 25.34 11 25 C11 23.02 11 21.04 11 19 C9.68 19 8.36 19 7 19 C6.71125 17.906875 6.4225 16.81375 6.125 15.6875 C5.18106796 11.95986155 5.18106796 11.95986155 3 9 C2.34 9 1.68 9 1 9 C0.67 6.03 0.34 3.06 0 0 Z " fill="#E7E28D" transform="translate(371,153)"/>
<path d="M0 0 C3 0.125 3 0.125 4 1.125 C4.09536242 4.29112663 4.12550636 7.43540628 4.11352539 10.60180664 C4.11367142 11.59681686 4.11381744 12.59182709 4.1139679 13.61698914 C4.11326831 16.92306662 4.10547379 20.22908854 4.09765625 23.53515625 C4.09579223 25.82059193 4.09436825 28.10602801 4.09336853 30.39146423 C4.08954207 36.41998387 4.0797107 42.44847959 4.06866455 48.47698975 C4.05845317 54.62332841 4.0538715 60.76967093 4.04882812 66.91601562 C4.03808854 78.98568762 4.0210106 91.05534182 4 103.125 C3.67 103.125 3.34 103.125 3 103.125 C3 69.795 3 36.465 3 2.125 C1.35 2.455 -0.3 2.785 -2 3.125 C-2.33 36.455 -2.66 69.785 -3 104.125 C-3.33 104.125 -3.66 104.125 -4 104.125 C-4.0231207 90.71274207 -4.04091369 77.30048883 -4.05181217 63.88821507 C-4.0570416 57.66106528 -4.06414033 51.43392908 -4.07543945 45.20678711 C-4.08626621 39.20273135 -4.09227638 33.19868871 -4.09487724 27.19462395 C-4.09673188 24.8983839 -4.10035321 22.60214461 -4.10573006 20.30591011 C-4.11293768 17.10179186 -4.11399106 13.8977285 -4.11352539 10.69360352 C-4.11712067 9.73407272 -4.12071594 8.77454193 -4.12442017 7.78593445 C-4.1230455 6.91790192 -4.12167084 6.04986938 -4.12025452 5.15553284 C-4.12117631 4.39689721 -4.1220981 3.63826159 -4.12304783 2.856637 C-3.90491084 -0.21317815 -3.11114972 0.12963124 0 0 Z " fill="#A0A68C" transform="translate(129,153.875)"/>
<path d="M0 0 C0 0.33 0 0.66 0 1 C-6.75 1.125 -6.75 1.125 -9 0 C-11.54615009 -0.23172827 -14.07396225 -0.41894529 -16.625 -0.5625 C-17.33140625 -0.60568359 -18.0378125 -0.64886719 -18.765625 -0.69335938 C-20.51018537 -0.79944751 -22.25506697 -0.90022889 -24 -1 C-24.165 0.299375 -24.33 1.59875 -24.5 2.9375 C-24.63921875 4.03384766 -24.63921875 4.03384766 -24.78125 5.15234375 C-25.01959535 6.85541732 -25.01959535 6.85541732 -25 8 C-23.02 8 -21.04 8 -19 8 C-19 8.33 -19 8.66 -19 9 C-19.6290625 9.13535156 -20.258125 9.27070313 -20.90625 9.41015625 C-27.80645378 11.14559907 -32.04043205 13.94345726 -37 19 C-37.33 18.01 -37.66 17.02 -38 16 C-37.34 16 -36.68 16 -36 16 C-35.67 14.35 -35.34 12.7 -35 11 C-36.65 10.67 -38.3 10.34 -40 10 C-40.33 8.68 -40.66 7.36 -41 6 C-28.17272977 -3.57397705 -15.13413891 -5.62507818 0 0 Z " fill="#C8B96B" transform="translate(370,148)"/>
<path d="M0 0 C0.79953138 3.28696233 1.09658936 4.71023192 0 8 C-2.18542332 8.36676314 -4.37348406 8.717827 -6.5625 9.0625 C-7.78066406 9.25972656 -8.99882812 9.45695313 -10.25390625 9.66015625 C-14.05460049 10.00495333 -17.2590233 9.68849378 -21 9 C-21 8.01 -21 7.02 -21 6 C-21.66 5.67 -22.32 5.34 -23 5 C-22.01 4.67 -21.02 4.34 -20 4 C-20 3.34 -20 2.68 -20 2 C-20.66 2 -21.32 2 -22 2 C-22 1.34 -22 0.68 -22 0 C-15.06934502 -1.54014555 -6.86665683 -2.06985349 0 0 Z " fill="#B89659" transform="translate(455,224)"/>
<path d="M0 0 C1.32 0.66 2.64 1.32 4 2 C3.67 2.66 3.34 3.32 3 4 C2.67 4.99 2.34 5.98 2 7 C1.34 7 0.68 7 0 7 C-0.33 10.3 -0.66 13.6 -1 17 C-1.66 17 -2.32 17 -3 17 C-2.52233101 19.58361841 -2.04292208 22.16689338 -1.5625 24.75 C-1.36043945 25.84441406 -1.36043945 25.84441406 -1.15429688 26.9609375 C-0.40320508 31.03738779 -0.40320508 31.03738779 0.54321289 35.07128906 C1.099107 37.41846357 1.06675456 39.59683584 1 42 C-0.485 42.495 -0.485 42.495 -2 43 C-4.24071786 41.2206064 -4.94391097 40.30113374 -5.4765625 37.44140625 C-5.52554687 36.49136719 -5.57453125 35.54132813 -5.625 34.5625 C-5.61956821 28.8677637 -5.61956821 28.8677637 -8 24 C-8.04063832 22.33382885 -8.042721 20.66611905 -8 19 C-7.34 19 -6.68 19 -6 19 C-5.87530901 13.42169984 -5.87530901 13.42169984 -7 8 C-5.68 8 -4.36 8 -3 8 C-1.92474806 5.34771188 -0.90543849 2.71631546 0 0 Z " fill="#D7C272" transform="translate(414,239)"/>
<path d="M0 0 C0.99 0 1.98 0 3 0 C3 1.98 3 3.96 3 6 C6.00259517 6.33218192 6.00259517 6.33218192 7.6875 4.5 C8.3371875 3.7575 8.3371875 3.7575 9 3 C10.5 4.125 10.5 4.125 12 6 C12.375 9.0625 12.375 9.0625 12 12 C11.01 12.66 10.02 13.32 9 14 C9.99 16.64 10.98 19.28 12 22 C12.33 21.34 12.66 20.68 13 20 C13.99 20 14.98 20 16 20 C16.46882399 28.12628256 16.46882399 28.12628256 14.625 31.5625 C13 33 13 33 11 33 C9.5216774 30.04335481 9.93967217 27.25770263 10 24 C9.37512695 23.7628125 8.75025391 23.525625 8.10644531 23.28125 C5.40359174 21.63723336 5.14706296 20.50597924 4.296875 17.5 C4.0390625 16.613125 3.78125 15.72625 3.515625 14.8125 C3.26296875 13.884375 3.0103125 12.95625 2.75 12 C2.481875 11.071875 2.21375 10.14375 1.9375 9.1875 C0 2.38647959 0 2.38647959 0 0 Z " fill="#EDE089" transform="translate(379,172)"/>
<path d="M0 0 C0.969375 0.5775 1.93875 1.155 2.9375 1.75 C11.04635818 6.30971686 17.14089278 8.60944503 26.5625 8.25 C27.47580078 8.23195313 28.38910156 8.21390625 29.33007812 8.1953125 C31.55453514 8.14872701 33.77666967 8.08335485 36 8 C35.67 8.66 35.34 9.32 35 10 C32.36 10 29.72 10 27 10 C27.185625 10.969375 27.37125 11.93875 27.5625 12.9375 C27.706875 13.948125 27.85125 14.95875 28 16 C27.67 16.33 27.34 16.66 27 17 C28.65 17.33 30.3 17.66 32 18 C32 18.33 32 18.66 32 19 C28.54173658 19.05789006 25.08359707 19.09355821 21.625 19.125 C20.64015625 19.14175781 19.6553125 19.15851563 18.640625 19.17578125 C17.69960938 19.18222656 16.75859375 19.18867188 15.7890625 19.1953125 C14.48509521 19.21102295 14.48509521 19.21102295 13.15478516 19.22705078 C11 19 11 19 9 17 C10.98 17 12.96 17 15 17 C15 14.69 15 12.38 15 10 C13.68 10 12.36 10 11 10 C10.67 9.34 10.34 8.68 10 8 C8.7625 7.7525 8.7625 7.7525 7.5 7.5 C6.675 7.335 5.85 7.17 5 7 C4.67 6.34 4.34 5.68 4 5 C3.01 4.67 2.02 4.34 1 4 C0.3125 1.9375 0.3125 1.9375 0 0 Z M13 12 C15 13 15 13 15 13 Z " fill="#B5965E" transform="translate(424,285)"/>
<path d="M0 0 C2.19007792 2.19007792 3.23836623 4.17639592 4.625 6.9375 C5.07101562 7.81277344 5.51703125 8.68804687 5.9765625 9.58984375 C7 12 7 12 7 15 C7.66 15 8.32 15 9 15 C9.625 17.875 9.625 17.875 10 21 C9.34 21.66 8.68 22.32 8 23 C7.34 22.67 6.68 22.34 6 22 C6 22.99 6 23.98 6 25 C6.928125 25.0928125 6.928125 25.0928125 7.875 25.1875 C10 26 10 26 11.3125 28.4375 C12 31 12 31 11 33 C3.98497157 30.04960773 -1.17064214 22.89655978 -4 16 C-2.35 16.33 -0.7 16.66 1 17 C1.86964804 13.52140783 1.97534902 11.41372156 1 8 C0.61533719 5.33813335 0.31171127 2.67181089 0 0 Z " fill="#C6B576" transform="translate(412,264)"/>
<path d="M0 0 C0.66 0.99 1.32 1.98 2 3 C1.34 3 0.68 3 0 3 C-0.33 4.65 -0.66 6.3 -1 8 C-1.66 8 -2.32 8 -3 8 C-2.814375 8.5775 -2.62875 9.155 -2.4375 9.75 C-1.94289288 12.29369374 -2.06860513 13.59389658 -3 16 C-4.5625 17.75 -4.5625 17.75 -6 19 C-4.02 19 -2.04 19 0 19 C0 17.68 0 16.36 0 15 C0.99 15 1.98 15 3 15 C2.01 17.475 2.01 17.475 1 20 C0.34 20 -0.32 20 -1 20 C-1.2475 20.763125 -1.495 21.52625 -1.75 22.3125 C-3.10995558 25.2364045 -4.31585826 26.30004356 -7 28 C-9.125 21.375 -9.125 21.375 -8 18 C-11.75151144 19.78907722 -11.75151144 19.78907722 -13.8125 23.1875 C-13.874375 23.785625 -13.93625 24.38375 -14 25 C-15.65 25.33 -17.3 25.66 -19 26 C-17.74850169 22.24550508 -15.81312384 20.7732779 -13 18 C-11.21883109 15.88779367 -9.54476921 13.70082731 -7.875 11.5 C-7.44574219 10.94441406 -7.01648438 10.38882812 -6.57421875 9.81640625 C-4.15744728 6.65601278 -1.97245224 3.45501437 0 0 Z M-8 16 C-7 18 -7 18 -7 18 Z " fill="#D6D389" transform="translate(393,264)"/>
<path d="M0 0 C-0.33 1.65 -0.66 3.3 -1 5 C-0.01 5.33 0.98 5.66 2 6 C-5.16516407 8.03012982 -14.03692722 9.48153639 -21 6 C-21 5.34 -21 4.68 -21 4 C-21.66 3.67 -22.32 3.34 -23 3 C-23 2.34 -23 1.68 -23 1 C-23.66 0.67 -24.32 0.34 -25 0 C-23.10314453 0.01740234 -23.10314453 0.01740234 -21.16796875 0.03515625 C-19.50781398 0.04453566 -17.84765761 0.0536357 -16.1875 0.0625 C-15.35412109 0.07087891 -14.52074219 0.07925781 -13.66210938 0.08789062 C-12.45844727 0.09272461 -12.45844727 0.09272461 -11.23046875 0.09765625 C-10.49207764 0.10289307 -9.75368652 0.10812988 -8.99291992 0.11352539 C-1.08559895 -0.33691002 -1.08559895 -0.33691002 0 0 Z " fill="#A8996A" transform="translate(109,290)"/>
<path d="M0 0 C0.99 0.66 1.98 1.32 3 2 C2.814375 2.61875 2.62875 3.2375 2.4375 3.875 C1.76313824 6.04160178 1.76313824 6.04160178 3 8 C2.34 8 1.68 8 1 8 C1 8.99 1 9.98 1 11 C2.65 10.67 4.3 10.34 6 10 C5.67 10.66 5.34 11.32 5 12 C4.34 12 3.68 12 3 12 C2.67 12.99 2.34 13.98 2 15 C0.125 16.75 0.125 16.75 -2 18 C-6.06540996 16.64486335 -6.97300269 14.69203082 -9 11 C-8.80255178 8.16238695 -8.13675564 7.142249 -6.15234375 5.078125 C-5.42144531 4.47484375 -4.69054687 3.8715625 -3.9375 3.25 C-3.20402344 2.63640625 -2.47054688 2.0228125 -1.71484375 1.390625 C-1.14894531 0.93171875 -0.58304687 0.4728125 0 0 Z " fill="#D4D489" transform="translate(373,290)"/>
<path d="M0 0 C6.93 0.33 13.86 0.66 21 1 C19.68 2.65 18.36 4.3 17 6 C16.67 6.66 16.34 7.32 16 8 C10.72 8 5.44 8 0 8 C-1 4 -1 4 0 0 Z " fill="#E8DC8C" transform="translate(152,154)"/>
<path d="M0 0 C0.66 0.66 1.32 1.32 2 2 C1.01 2.8971875 1.01 2.8971875 0 3.8125 C-4.26167062 8.03732621 -7.55125075 13.11355876 -11 18 C-10.34 18.33 -9.68 18.66 -9 19 C-10.98 19 -12.96 19 -15 19 C-15 19.66 -15 20.32 -15 21 C-17.64 21 -20.28 21 -23 21 C-22.505 19.515 -22.505 19.515 -22 18 C-21.96125079 16.33378384 -21.9549714 14.66605828 -22 13 C-20.7625 12.896875 -19.525 12.79375 -18.25 12.6875 C-14.6496754 12.25571504 -12.788497 11.37538633 -10 9 C-9.01 9 -8.02 9 -7 9 C-7 8.34 -7 7.68 -7 7 C-5.01739574 5.31267723 -3.0167658 3.64633943 -1 2 C-0.67 1.34 -0.34 0.68 0 0 Z " fill="#AC864C" transform="translate(473,282)"/>
<path d="M0 0 C1.75070517 0.11470137 3.50057536 0.24219028 5.25 0.375 C6.22453125 0.44460937 7.1990625 0.51421875 8.203125 0.5859375 C10.89633189 0.98465249 12.66963279 1.63507063 15 3 C15 3.66 15 4.32 15 5 C13.35 5 11.7 5 10 5 C10.33 7.97 10.66 10.94 11 14 C12.32 13.67 13.64 13.34 15 13 C15 14.32 15 15.64 15 17 C15.66 17.33 16.32 17.66 17 18 C16.34 18.66 15.68 19.32 15 20 C14.7525 19.38125 14.505 18.7625 14.25 18.125 C12.71894724 15.5222103 11.74861939 15.18859217 9 14 C7.88625 13.319375 6.7725 12.63875 5.625 11.9375 C2.46522605 10.10169181 -0.33293044 9.35776288 -4 9 C-0.55549263 6.70366176 1.93812283 6.45983515 6 6 C6 5.01 6 4.02 6 3 C4.02 3 2.04 3 0 3 C0 2.01 0 1.02 0 0 Z " fill="#D8D286" transform="translate(361,148)"/>
<path d="M0 0 C3.87399485 1.2588861 5.71147524 2.290583 7.6875 5.875 C11.55651063 13.50282792 13.08259739 22.09696894 11.03515625 30.4765625 C8.53179595 36.57909365 4.0105712 42.67463512 -1 47 C-1.66 47 -2.32 47 -3 47 C-3 47.66 -3 48.32 -3 49 C-6.52948291 50.66670026 -8.28272326 51.13583456 -12 50 C-10.80375 49.443125 -9.6075 48.88625 -8.375 48.3125 C-0.77050926 44.44990153 3.57948426 39.75133002 7 32 C9.19521389 23.72573228 8.60381301 14.83367415 4.53125 7.2734375 C3.06454515 4.81739872 1.56168435 2.39654705 0 0 Z " fill="#806F5F" transform="translate(469,242)"/>
<path d="M0 0 C0.33 0.66 0.66 1.32 1 2 C1.66 2 2.32 2 3 2 C3 2.66 3 3.32 3 4 C2.01 4.495 2.01 4.495 1 5 C1.33 6.32 1.66 7.64 2 9 C3.32 9.33 4.64 9.66 6 10 C4.25307205 10.67467562 2.50231475 11.33944156 0.75 12 C-0.71179688 12.556875 -0.71179688 12.556875 -2.203125 13.125 C-5 14 -5 14 -9 14 C-9.33 13.01 -9.66 12.02 -10 11 C-8.0625 7.8125 -8.0625 7.8125 -6 5 C-6.66 4.67 -7.32 4.34 -8 4 C-5.36 2.68 -2.72 1.36 0 0 Z " fill="#C7AB63" transform="translate(432,224)"/>
<path d="M0 0 C-1.43570266 0.81567174 -2.87363434 1.62742093 -4.3125 2.4375 C-5.11300781 2.88996094 -5.91351563 3.34242188 -6.73828125 3.80859375 C-9 5 -9 5 -12 6 C-12 6.66 -12 7.32 -12 8 C-12.66 8 -13.32 8 -14 8 C-14.268125 8.5775 -14.53625 9.155 -14.8125 9.75 C-16.02929189 12.05550043 -17.30333879 14.02056192 -19 16 C-19.66 16 -20.32 16 -21 16 C-22.86551426 19.58752742 -24.42535928 23.27812193 -26 27 C-26.33 27 -26.66 27 -27 27 C-27 25.02 -27 23.04 -27 21 C-26.34 21 -25.68 21 -25 21 C-24.67 17.7 -24.34 14.4 -24 11 C-23.01 11 -22.02 11 -21 11 C-21 11.66 -21 12.32 -21 13 C-20.34 13 -19.68 13 -19 13 C-18.87625 12.2575 -18.7525 11.515 -18.625 10.75 C-18.00738955 8.032514 -17.53376589 6.31418206 -16 4 C-13.3203125 2.48046875 -13.3203125 2.48046875 -10.125 1.1875 C-9.07570313 0.74792969 -8.02640625 0.30835938 -6.9453125 -0.14453125 C-4.01799774 -0.99477254 -2.78344143 -1.09589602 0 0 Z " fill="#B8AD7A" transform="translate(438,235)"/>
<path d="M0 0 C0.66 0 1.32 0 2 0 C1.76408442 1.9210269 1.52676912 3.84189562 1.28125 5.76171875 C1.02544423 7.79750634 0.79269191 9.83615734 0.5625 11.875 C0 15 0 15 -2 17 C-2.58370443 19.22975091 -3.06786457 21.48598609 -3.5 23.75 C-3.62673096 24.40943604 -3.75346191 25.06887207 -3.8840332 25.74829102 C-5.14587033 32.46663475 -6.11235142 39.22254204 -7 46 C-8.953125 45.2265625 -8.953125 45.2265625 -11 44 C-11.75 40.375 -11.75 40.375 -12 37 C-10 39 -10 39 -9 42 C-8.89042969 41.23558594 -8.78085937 40.47117188 -8.66796875 39.68359375 C-6.66863791 26.17591953 -3.96400297 13.05907578 0 0 Z " fill="#9F9164" transform="translate(312,186)"/>
<path d="M0 0 C3.625 0.1875 3.625 0.1875 6.625 2.1875 C7.10230962 5.91051503 6.7637261 6.97941085 4.625 10.1875 C-0.34593824 9.77596263 -4.82008386 9.39149168 -9.375 7.1875 C-8.055 6.8575 -6.735 6.5275 -5.375 6.1875 C-5.230625 5.383125 -5.08625 4.57875 -4.9375 3.75 C-4.09912966 -0.06924266 -4.07693441 0.22649636 0 0 Z " fill="#A9814C" transform="translate(460.375,225.8125)"/>
<path d="M0 0 C0.66 0.33 1.32 0.66 2 1 C1.67 1.66 1.34 2.32 1 3 C0.01 3 -0.98 3 -2 3 C-1.67 4.65 -1.34 6.3 -1 8 C2.26913624 9.03115279 4.86041348 8.9638984 8.25 8.5625 C9.14203125 8.46066406 10.0340625 8.35882813 10.953125 8.25390625 C11.62859375 8.17011719 12.3040625 8.08632812 13 8 C13 8.33 13 8.66 13 9 C12.3709375 9.13535156 11.741875 9.27070313 11.09375 9.41015625 C4.19354622 11.14559907 -0.04043205 13.94345726 -5 19 C-5.33 18.01 -5.66 17.02 -6 16 C-5.34 16 -4.68 16 -4 16 C-3.67 14.35 -3.34 12.7 -3 11 C-4.65 10.67 -6.3 10.34 -8 10 C-8.33 8.68 -8.66 7.36 -9 6 C-6.03 4.02 -3.06 2.04 0 0 Z " fill="#BAAC75" transform="translate(338,148)"/>
<path d="M0 0 C0.66 0 1.32 0 2 0 C2.33 0.66 2.66 1.32 3 2 C3.99 2.33 4.98 2.66 6 3 C6.75 4.9375 6.75 4.9375 7 7 C6.67 7.66 6.34 8.32 6 9 C5.34 9 4.68 9 4 9 C4 10.65 4 12.3 4 14 C2.02 14 0.04 14 -2 14 C-3.46033351 9.61899946 -2.77390839 5.77543691 -0.9375 1.5625 C-0.628125 1.046875 -0.31875 0.53125 0 0 Z " fill="#C3AD5C" transform="translate(328,155)"/>
<path d="M0 0 C1.32 0.33 2.64 0.66 4 1 C-3.21420622 8.73224763 -11.48607217 16.19233185 -22.51953125 17.23901367 C-25.18602017 17.29357794 -27.83411964 17.26305911 -30.5 17.1875 C-31.4178125 17.17396484 -32.335625 17.16042969 -33.28125 17.14648438 C-35.52146803 17.11148097 -37.76040594 17.06238869 -40 17 C-40 16.67 -40 16.34 -40 16 C-29.605 15.505 -29.605 15.505 -19 15 C-19 14.34 -19 13.68 -19 13 C-18.360625 12.896875 -17.72125 12.79375 -17.0625 12.6875 C-16.381875 12.460625 -15.70125 12.23375 -15 12 C-14.67 11.01 -14.34 10.02 -14 9 C-9.545 8.505 -9.545 8.505 -5 8 C-5 7.34 -5 6.68 -5 6 C-4.360625 5.525625 -3.72125 5.05125 -3.0625 4.5625 C-0.71627037 3.0908635 -0.71627037 3.0908635 0 0 Z " fill="#8C7B63" transform="translate(477,288)"/>
<path d="M0 0 C5.17607959 3.45071972 6.91547882 8.87813986 8.25 14.8125 C9.66243776 23.03490551 9.98861639 32.06725279 7 40 C6.01 40.495 6.01 40.495 5 41 C5.23976563 39.50919922 5.23976563 39.50919922 5.484375 37.98828125 C6.87530932 28.17528892 7.28437147 17.15833534 3 8 C2.34 7.34 1.68 6.68 1 6 C0.60235737 4.01178687 0.26224651 2.01055661 0 0 Z " fill="#786652" transform="translate(480,238)"/>
<path d="M0 0 C1.32 0.33 2.64 0.66 4 1 C3.40072174 4.35595828 2.15377564 6.37801226 0 9 C0.99 10.485 0.99 10.485 2 12 C2 12.99 2 13.98 2 15 C1.01 15 0.02 15 -1 15 C-1 16.32 -1 17.64 -1 19 C-2.98 19 -4.96 19 -7 19 C-6.505 17.515 -6.505 17.515 -6 16 C-5.34 16 -4.68 16 -4 16 C-4 13.36 -4 10.72 -4 8 C-3.34 7.67 -2.68 7.34 -2 7 C-1.26924352 4.6859378 -0.59861742 2.35171131 0 0 Z " fill="#E9D985" transform="translate(394,264)"/>
<path d="M0 0 C0.969375 0.5775 1.93875 1.155 2.9375 1.75 C11.04635818 6.30971686 17.14089278 8.60944503 26.5625 8.25 C27.47580078 8.23195313 28.38910156 8.21390625 29.33007812 8.1953125 C31.55453514 8.14872701 33.77666967 8.08335485 36 8 C35.67 8.66 35.34 9.32 35 10 C32.36 10 29.72 10 27 10 C27 10.99 27 11.98 27 13 C26.01 13 25.02 13 24 13 C24 12.34 24 11.68 24 11 C23.07316406 10.95101563 22.14632813 10.90203125 21.19140625 10.8515625 C19.99386719 10.77679688 18.79632813 10.70203125 17.5625 10.625 C16.36753906 10.55539062 15.17257812 10.48578125 13.94140625 10.4140625 C12.97074219 10.27742188 12.00007813 10.14078125 11 10 C10.67 9.34 10.34 8.68 10 8 C8.7625 7.7525 8.7625 7.7525 7.5 7.5 C6.675 7.335 5.85 7.17 5 7 C4.67 6.34 4.34 5.68 4 5 C3.01 4.67 2.02 4.34 1 4 C0.3125 1.9375 0.3125 1.9375 0 0 Z " fill="#A18F6A" transform="translate(424,285)"/>
<path d="M0 0 C0.99 0.33 1.98 0.66 3 1 C3 1.66 3 2.32 3 3 C4.32 3 5.64 3 7 3 C7 3.66 7 4.32 7 5 C10.3 5.66 13.6 6.32 17 7 C17 7.66 17 8.32 17 9 C18.65 9 20.3 9 22 9 C21.01 9.33 20.02 9.66 19 10 C19 10.66 19 11.32 19 12 C13.65155992 11.46515599 9.64203897 9.53309233 5 7 C5 6.01 5 5.02 5 4 C3.68 4.33 2.36 4.66 1 5 C0.67 3.35 0.34 1.7 0 0 Z " fill="#A17436" transform="translate(69,284)"/>
<path d="M0 0 C0.33 0.66 0.66 1.32 1 2 C0.67 2.66 0.34 3.32 0 4 C0.66 4 1.32 4 2 4 C5.42857143 11.28571429 5.42857143 11.28571429 5 16 C3.35 16 1.7 16 0 16 C-3.70498915 5.87744035 -3.70498915 5.87744035 -3 2 C-2.01 1.34 -1.02 0.68 0 0 Z " fill="#E5D37F" transform="translate(397,224)"/>
<path d="M0 0 C1.01057371 4.04229486 1.32818966 7.80255376 1.4375 11.9375 C1.48326172 12.64068359 1.52902344 13.34386719 1.57617188 14.06835938 C1.63981169 17.02069353 1.5865997 19.30567888 -0.36669922 21.61767578 C-2.02734375 23.00390625 -2.02734375 23.00390625 -5 25 C-4.34 21.37 -3.68 17.74 -3 14 C-3.66 13.67 -4.32 13.34 -5 13 C-3.35 8.71 -1.7 4.42 0 0 Z " fill="#BA954B" transform="translate(317,172)"/>
<path d="M0 0 C6.43255401 -0.12086218 12.61773055 0.17648136 19 1 C19 1.66 19 2.32 19 3 C15.69453961 4.98170967 13.20178541 5.24423132 9.375 5.1875 C8.41335937 5.18105469 7.45171875 5.17460937 6.4609375 5.16796875 C4 5 4 5 2 4 C2 3.34 2 2.68 2 2 C1.34 1.34 0.68 0.68 0 0 Z " fill="#B79350" transform="translate(86,292)"/>
<path d="M0 0 C1.32 0 2.64 0 4 0 C4.103125 0.639375 4.20625 1.27875 4.3125 1.9375 C4.539375 2.618125 4.76625 3.29875 5 4 C5.99 4.33 6.98 4.66 8 5 C7.67 5.99 7.34 6.98 7 8 C7.66 8 8.32 8 9 8 C9 8.66 9 9.32 9 10 C10.65 10 12.3 10 14 10 C15.0625 12.375 15.0625 12.375 16 15 C15.67 15.66 15.34 16.32 15 17 C7.98497157 14.04960773 2.82935786 6.89655978 0 0 Z " fill="#B8AE7C" transform="translate(408,280)"/>
<path d="M0 0 C0.33 0 0.66 0 1 0 C1 4.62 1 9.24 1 14 C1.66 14 2.32 14 3 14 C3.33 13.34 3.66 12.68 4 12 C4.66 12 5.32 12 6 12 C5.33501617 16.38889325 3.81242323 19.9811485 2 24 C1.67 24 1.34 24 1 24 C1.495 19.545 1.495 19.545 2 15 C0.68 15 -0.64 15 -2 15 C-2.33 16.65 -2.66 18.3 -3 20 C-3.66 20 -4.32 20 -5 20 C-4.80664062 19.47792969 -4.61328125 18.95585937 -4.4140625 18.41796875 C-2.2712215 12.36073009 -1.00711777 6.33891775 0 0 Z " fill="#A9A879" transform="translate(124,260)"/>
<path d="M0 0 C2.36367676 3.54551514 2.86690284 6.82648399 3.5625 10.9375 C4.59263488 17.0086842 4.59263488 17.0086842 6 23 C6.33 22.34 6.66 21.68 7 21 C7.66 21 8.32 21 9 21 C9.28875 20.195625 9.5775 19.39125 9.875 18.5625 C11 16 11 16 13 15 C10.49344978 22.87772926 10.49344978 22.87772926 9 25 C6.375 25.75 6.375 25.75 4 26 C3.51171875 23.98177083 3.0234375 21.96354167 2.53515625 19.9453125 C2.05153008 17.9414343 2.05153008 17.9414343 1 16 C0.7677354 13.28737884 0.58063765 10.59226874 0.4375 7.875 C0.39431641 7.12089844 0.35113281 6.36679688 0.30664062 5.58984375 C0.2005168 3.72678112 0.09974999 1.86341476 0 0 Z " fill="#B4B186" transform="translate(402,222)"/>
<path d="M0 0 C0.66 0 1.32 0 2 0 C1.35588614 5.55313696 0.49942196 11.01255636 -0.5625 16.5 C-0.70107422 17.22703125 -0.83964844 17.9540625 -0.98242188 18.703125 C-1.31936665 20.46918037 -1.65935683 22.23465426 -2 24 C-2.66 24 -3.32 24 -4 24 C-2.85714286 2.85714286 -2.85714286 2.85714286 0 0 Z " fill="#9E8F65" transform="translate(318,198)"/>
<path d="M0 0 C1.22589844 0.01353516 1.22589844 0.01353516 2.4765625 0.02734375 C3.41628906 0.04474609 3.41628906 0.04474609 4.375 0.0625 C2.89 2.5375 2.89 2.5375 1.375 5.0625 C2.035 5.3925 2.695 5.7225 3.375 6.0625 C-0.915 6.0625 -5.205 6.0625 -9.625 6.0625 C-5.93661473 -0.08480878 -5.93661473 -0.08480878 0 0 Z " fill="#DAC67D" transform="translate(177.625,154.9375)"/>
<path d="M0 0 C0.94447998 0.00128906 1.88895996 0.00257813 2.86206055 0.00390625 C3.81363037 0.00261719 4.7652002 0.00132812 5.74560547 0 C12.41832089 0.1007116 18.04450239 0.86641831 23.86206055 4.37890625 C21.03274203 5.1881933 18.55121977 5.49039224 15.61206055 5.44140625 C13.75581055 5.41046875 13.75581055 5.41046875 11.86206055 5.37890625 C11.53206055 4.38890625 11.20206055 3.39890625 10.86206055 2.37890625 C4.26206055 2.37890625 -2.33793945 2.37890625 -9.13793945 2.37890625 C-6.26430199 -0.49473121 -3.93417103 0.06259959 0 0 Z " fill="#8F8068" transform="translate(444.137939453125,221.62109375)"/>
<path d="M0 0 C1.65 0 3.3 0 5 0 C5.33 0.99 5.66 1.98 6 3 C5.67 3.66 5.34 4.32 5 5 C5.66 5 6.32 5 7 5 C7.33 7.64 7.66 10.28 8 13 C5 12 5 12 3 9 C2.34 9 1.68 9 1 9 C0.67 6.03 0.34 3.06 0 0 Z " fill="#F1E587" transform="translate(371,153)"/>
<path d="M0 0 C0.99 0 1.98 0 3 0 C2.938125 0.99 2.87625 1.98 2.8125 3 C2.79724879 6.75942398 3.79694363 9.66811266 5.24609375 13.10546875 C6.02833929 15.07121531 6.62474235 16.91667302 7 19 C6.67 19.66 6.34 20.32 6 21 C5.01 20.67 4.02 20.34 3 20 C2.49550598 17.41747107 1.99625699 14.83411297 1.5 12.25 C1.35691406 11.52039063 1.21382813 10.79078125 1.06640625 10.0390625 C0.41111121 6.60656468 0 3.50830509 0 0 Z " fill="#DED38F" transform="translate(392,224)"/>
<path d="M0 0 C0.66 0.66 1.32 1.32 2 2 C1.29875 2.66 0.5975 3.32 -0.125 4 C-3.01590523 6.83374044 -5.17285135 10.04122893 -7.375 13.42578125 C-9 15 -9 15 -11.6875 15.23046875 C-12.450625 15.15441406 -13.21375 15.07835937 -14 15 C-14 14.01 -14 13.02 -14 12 C-11.46815512 9.64276511 -10.52809907 9 -7 9 C-7 8.34 -7 7.68 -7 7 C-5.01739574 5.31267723 -3.0167658 3.64633943 -1 2 C-0.67 1.34 -0.34 0.68 0 0 Z " fill="#A37B4D" transform="translate(473,282)"/>
<path d="M0 0 C1 1 2 2 3 3 C4.03640625 3.81984375 4.03640625 3.81984375 5.09375 4.65625 C7.74136542 7.91151486 7.40308524 10.11669849 7.25 14.25 C7.21390625 15.51328125 7.1778125 16.7765625 7.140625 18.078125 C7.09421875 19.04234375 7.0478125 20.0065625 7 21 C4.31400569 18.31400569 3.94287341 15.83819053 2.9375 12.1875 C2.59589844 10.96417969 2.25429688 9.74085938 1.90234375 8.48046875 C1.17105366 5.65977839 0.52915598 2.86398854 0 0 Z " fill="#968456" transform="translate(292,231)"/>
<path d="M0 0 C0.99 0.28875 1.98 0.5775 3 0.875 C4.33326829 1.25023119 5.66660439 1.6252215 7 2 C8.216875 2.350625 9.43375 2.70125 10.6875 3.0625 C16.03431933 4.40184133 21.51574188 4.65266365 27 5 C27 5.33 27 5.66 27 6 C18.60674621 7.39607227 11.0602626 6.88520763 3 4 C1.125 2.453125 1.125 2.453125 0 1 C0 0.67 0 0.34 0 0 Z " fill="#8B8556" transform="translate(75,292)"/>
<path d="M0 0 C1.27310312 0.93441535 2.543388 1.87267111 3.8125 2.8125 C4.52019531 3.33457031 5.22789062 3.85664063 5.95703125 4.39453125 C7.79961207 5.84252498 9.46364869 7.23101505 11 9 C11 9.66 11 10.32 11 11 C8.6875 11.1875 8.6875 11.1875 6 11 C4.3125 9.5625 4.3125 9.5625 3 8 C2.34 7.67 1.68 7.34 1 7 C0.59270772 4.67843403 0.25561323 2.3431213 0 0 Z " fill="#90714F" transform="translate(469,227)"/>
<path d="M0 0 C-0.66 1.65 -1.32 3.3 -2 5 C-1.34 5.33 -0.68 5.66 0 6 C-7.75 6.125 -7.75 6.125 -10 5 C-10 3.68 -10 2.36 -10 1 C-6.52674819 -0.1577506 -3.63932552 -0.06866652 0 0 Z " fill="#D0B973" transform="translate(189,155)"/>
<path d="M0 0 C0.99 0 1.98 0 3 0 C3.46882399 8.12628256 3.46882399 8.12628256 1.625 11.5625 C0 13 0 13 -2 13 C-2.05447047 11.58376784 -2.09300508 10.16691809 -2.125 8.75 C-2.14820313 7.96109375 -2.17140625 7.1721875 -2.1953125 6.359375 C-1.9828378 3.79268059 -1.28654105 2.2083933 0 0 Z " fill="#EADA7F" transform="translate(392,192)"/>
<path d="M0 0 C0.33 2.31 0.66 4.62 1 7 C-2 8 -2 8 -4.0625 7.25 C-6 6 -6 6 -8 3 C-3.375 0 -3.375 0 0 0 Z " fill="#BFA35E" transform="translate(439,295)"/>
<path d="M0 0 C0.66 0.66 1.32 1.32 2 2 C1.76051177 6.94942337 1.54583971 10.29999334 -2 14 C-4.09350689 10.5980513 -4.17942163 7.94727588 -4 4 C-2.68 3.67 -1.36 3.34 0 3 C0 2.01 0 1.02 0 0 Z " fill="#98612A" transform="translate(277,157)"/>
<path d="M0 0 C0 0.66 0 1.32 0 2 C0.66 2 1.32 2 2 2 C2 3.32 2 4.64 2 6 C-0.31 6 -2.62 6 -5 6 C-4.01 5.67 -3.02 5.34 -2 5 C-2.33 3.68 -2.66 2.36 -3 1 C-3.66 1 -4.32 1 -5 1 C-5.33 1.99 -5.66 2.98 -6 4 C-6.33 3.01 -6.66 2.02 -7 1 C-9.64 1 -12.28 1 -15 1 C-15 0.67 -15 0.34 -15 0 C-13.06325815 -0.19517554 -11.12555991 -0.38087873 -9.1875 -0.5625 C-8.10855469 -0.66691406 -7.02960938 -0.77132812 -5.91796875 -0.87890625 C-3 -1 -3 -1 0 0 Z " fill="#906843" transform="translate(240,155)"/>
<path d="M0 0 C3.26138833 3.26138833 3.90271045 7.64683071 5.1875 12 C5.47302734 12.928125 5.75855469 13.85625 6.05273438 14.8125 C6.31763672 15.699375 6.58253906 16.58625 6.85546875 17.5 C7.09934326 18.3146875 7.34321777 19.129375 7.59448242 19.96875 C8 22 8 22 7 24 C6.34 21.69 5.68 19.38 5 17 C4.34 17 3.68 17 3 17 C3 15.02 3 13.04 3 11 C2.34 11 1.68 11 1 11 C0.67 7.37 0.34 3.74 0 0 Z " fill="#8F7D59" transform="translate(292,197)"/>
<path d="M0 0 C0 3.48605314 -0.25560027 6.5881679 -1 10 C-2.9375 11.1875 -2.9375 11.1875 -5 12 C-6.26804566 14.0335948 -6.26804566 14.0335948 -7 16 C-7.66 16 -8.32 16 -9 16 C-7.72015413 9.31636048 -4.3520996 5.13175381 0 0 Z " fill="#A09772" transform="translate(327,156)"/>
<path d="M0 0 C1.32 0 2.64 0 4 0 C3.67 3.3 3.34 6.6 3 10 C2.01 10 1.02 10 0 10 C0 9.01 0 8.02 0 7 C-0.99 7 -1.98 7 -3 7 C-3 6.34 -3 5.68 -3 5 C-2.34 5 -1.68 5 -1 5 C-0.67 3.35 -0.34 1.7 0 0 Z " fill="#CEBF6F" transform="translate(122,275)"/>
<path d="M0 0 C2.21938778 3.32908167 3.42348225 6.68145864 4.6875 10.4375 C4.92533203 11.10587891 5.16316406 11.77425781 5.40820312 12.46289062 C7.46116337 18.5374856 7.46116337 18.5374856 6 22 C5.34 19.69 4.68 17.38 4 15 C3.34 15 2.68 15 2 15 C0.2520497 9.75614911 -0.19392201 5.52677733 0 0 Z " fill="#887353" transform="translate(283,168)"/>
<path d="M0 0 C2.625 -0.1875 2.625 -0.1875 5 0 C5 0.99 5 1.98 5 3 C4.01 3 3.02 3 2 3 C1.67 4.32 1.34 5.64 1 7 C2.65 7.33 4.3 7.66 6 8 C6 8.33 6 8.66 6 9 C1.545 9.495 1.545 9.495 -3 10 C-2.25 3.375 -2.25 3.375 0 0 Z " fill="#D6C271" transform="translate(346,147)"/>
<path d="M0 0 C7.93285519 -0.36801906 14.5345605 0.22523488 22 3 C22 3.33 22 3.66 22 4 C15.25 4.125 15.25 4.125 13 3 C10.795636 2.77049681 8.58607827 2.58924067 6.375 2.4375 C5.18648438 2.35371094 3.99796875 2.26992187 2.7734375 2.18359375 C1.40058594 2.09271484 1.40058594 2.09271484 0 2 C0 1.34 0 0.68 0 0 Z " fill="#ACAE7D" transform="translate(348,145)"/>
<path d="M0 0 C0.33 1.32 0.66 2.64 1 4 C1.66 4 2.32 4 3 4 C4.85154567 8.06873272 5.54646296 11.89082406 6.125 16.3125 C6.29257812 17.56675781 6.46015625 18.82101563 6.6328125 20.11328125 C6.75398438 21.06589844 6.87515625 22.01851562 7 23 C4.20213856 20.20213856 3.5066951 16.88195813 2.375 13.1875 C2.14554687 12.47529297 1.91609375 11.76308594 1.6796875 11.02929688 C0.50435158 7.24793339 -0.29925001 4.00837511 0 0 Z " fill="#827157" transform="translate(274,172)"/>
<path d="M0 0 C0.33 0.99 0.66 1.98 1 3 C0.01 3.495 0.01 3.495 -1 4 C-1.99 3.67 -2.98 3.34 -4 3 C-3.67 6.63 -3.34 10.26 -3 14 C-4.90318884 11.14521674 -5.4619099 9.58058692 -6.125 6.3125 C-6.29257812 5.50425781 -6.46015625 4.69601563 -6.6328125 3.86328125 C-6.75398438 3.24839844 -6.87515625 2.63351563 -7 2 C-4.35261084 0.5393715 -3.10551666 0 0 0 Z " fill="#7B6E53" transform="translate(277,158)"/>
<path d="M0 0 C6.93 0 13.86 0 21 0 C20.67 0.99 20.34 1.98 20 3 C17 4 17 4 13 4 C13 3.01 13 2.02 13 1 C8.71 1 4.42 1 0 1 C0 0.67 0 0.34 0 0 Z " fill="#998C6A" transform="translate(195,154)"/>
<path d="M0 0 C3.32597281 3.53105961 3.46770164 6.50235535 3.6875 11.25 C3.75324219 12.51328125 3.81898438 13.7765625 3.88671875 15.078125 C3.92410156 16.04234375 3.96148437 17.0065625 4 18 C3.01 17.67 2.02 17.34 1 17 C1.04125 15.989375 1.0825 14.97875 1.125 13.9375 C0.99849428 9.95256993 0.09830465 6.80745612 -1 3 C-0.67 2.01 -0.34 1.02 0 0 Z " fill="#DDCF75" transform="translate(400,225)"/>
<path d="M0 0 C0.33 0.99 0.66 1.98 1 3 C1.99 2.67 2.98 2.34 4 2 C4 2.99 4 3.98 4 5 C3.01 5 2.02 5 1 5 C0.67 6.98 0.34 8.96 0 11 C-0.99 11 -1.98 11 -3 11 C-3.17908534 7.06012251 -3.12660437 4.37754811 -1 1 C-0.67 0.67 -0.34 0.34 0 0 Z " fill="#F0E88E" transform="translate(382,161)"/>
<path d="M0 0 C0.66 0 1.32 0 2 0 C2.69640673 2.12209776 3.38188357 4.24778527 4.0625 6.375 C4.44535156 7.55835938 4.82820313 8.74171875 5.22265625 9.9609375 C6 13 6 13 5 15 C-0.74031891 5.77448747 -0.74031891 5.77448747 0 0 Z " fill="#CACD94" transform="translate(387,166)"/>
<path d="M0 0 C1.1171875 1.640625 1.1171875 1.640625 2 4 C1.3203125 6.796875 1.3203125 6.796875 0.125 9.75 C-0.26429688 10.73484375 -0.65359375 11.7196875 -1.0546875 12.734375 C-1.36664063 13.48203125 -1.67859375 14.2296875 -2 15 C-3.4606285 12.35261084 -4 11.10551666 -4 8 C-3.34 8 -2.68 8 -2 8 C-1.855625 7.236875 -1.71125 6.47375 -1.5625 5.6875 C-1 3 -1 3 0 0 Z " fill="#98682A" transform="translate(280,165)"/>
<path d="M0 0 C1.32 0.33 2.64 0.66 4 1 C-0.6463321 5.97217876 -4.89180978 9.94590489 -11 13 C-11 12.34 -11 11.68 -11 11 C-10.34 11 -9.68 11 -9 11 C-9 10.34 -9 9.68 -9 9 C-7.68 8.67 -6.36 8.34 -5 8 C-5 7.34 -5 6.68 -5 6 C-4.360625 5.525625 -3.72125 5.05125 -3.0625 4.5625 C-0.71627037 3.0908635 -0.71627037 3.0908635 0 0 Z " fill="#806F5D" transform="translate(477,288)"/>
<path d="M0 0 C0.99 0 1.98 0 3 0 C3 0.66 3 1.32 3 2 C2.34 2 1.68 2 1 2 C0.67 2.99 0.34 3.98 0 5 C-1.5234375 6.421875 -1.5234375 6.421875 -3.375 7.75 C-3.98085937 8.19859375 -4.58671875 8.6471875 -5.2109375 9.109375 C-7 10 -7 10 -10 9 C-10 8.34 -10 7.68 -10 7 C-8.68 7 -7.36 7 -6 7 C-6 6.34 -6 5.68 -6 5 C-4.02 4.34 -2.04 3.68 0 3 C0 2.01 0 1.02 0 0 Z " fill="#A59D78" transform="translate(121,285)"/>
<path d="M0 0 C2.64 0.66 5.28 1.32 8 2 C8 2.66 8 3.32 8 4 C9.65 4 11.3 4 13 4 C12.01 4.33 11.02 4.66 10 5 C10 5.66 10 6.32 10 7 C7.03 6.505 7.03 6.505 4 6 C4.33 4.68 4.66 3.36 5 2 C3.35 2 1.7 2 0 2 C0 1.34 0 0.68 0 0 Z " fill="#A88347" transform="translate(78,289)"/>
<path d="M0 0 C0.33 0 0.66 0 1 0 C2.76273292 7.89161968 3.24817532 14.18326735 1 22 C0.67 22 0.34 22 0 22 C0 14.74 0 7.48 0 0 Z " fill="#896D4F" transform="translate(478,253)"/>
<path d="M0 0 C2.78637633 4.1795645 1.79562512 6.14668677 1 11 C-0.9375 10.4375 -0.9375 10.4375 -3 9 C-3.75 5.375 -3.75 5.375 -4 2 C-2 4 -2 4 -1 7 C-0.67 4.69 -0.34 2.38 0 0 Z " fill="#988760" transform="translate(304,221)"/>
<path d="M0 0 C0.66 0.99 1.32 1.98 2 3 C1.34 3 0.68 3 0 3 C-0.33 4.65 -0.66 6.3 -1 8 C-1.66 8 -2.32 8 -3 8 C-3.66 9.32 -4.32 10.64 -5 12 C-5.66 12 -6.32 12 -7 12 C-5.44298069 7.32894208 -2.91552627 3.91294315 0 0 Z " fill="#C2C78B" transform="translate(393,264)"/>
<path d="M0 0 C0.99 0.33 1.98 0.66 3 1 C3.91657981 6.38490641 4.11138159 11.54230189 4 17 C1.94862685 13.51783717 1.43181408 10.22724343 0.875 6.25 C0.70742188 5.07953125 0.53984375 3.9090625 0.3671875 2.703125 C0.24601562 1.81109375 0.12484375 0.9190625 0 0 Z " fill="#BBC492" transform="translate(386,195)"/>
<path d="M0 0 C0.66 0 1.32 0 2 0 C1.14285714 8.57142857 1.14285714 8.57142857 -1 12 C-2.50934217 8.98131566 -2.17510672 6.32702771 -2 3 C-1.34 2.01 -0.68 1.02 0 0 Z " fill="#AD9767" transform="translate(318,198)"/>
<path d="M0 0 C3.3 0.33 6.6 0.66 10 1 C10.33 2.98 10.66 4.96 11 7 C7.37 5.02 3.74 3.04 0 1 C0 0.67 0 0.34 0 0 Z " fill="#7B6A53" transform="translate(458,235)"/>
<path d="M0 0 C0.66 0 1.32 0 2 0 C3.05404945 3.98196457 2.84098656 6.98195309 2 11 C0.4375 10 0.4375 10 -1 8 C-0.96726452 5.23385218 -0.49404328 2.73969453 0 0 Z " fill="#A87D38" transform="translate(294,224)"/>
<path d="M0 0 C2.60275371 1.30137685 2.93166352 2.31546219 4 5 C4.4140625 7.796875 4.4140625 7.796875 4.625 10.75 C4.69976562 11.73484375 4.77453125 12.7196875 4.8515625 13.734375 C4.92503906 14.85585937 4.92503906 14.85585937 5 16 C3.26453924 13.39680887 2.34824767 11.47732763 1.375 8.5625 C1.11460937 7.80066406 0.85421875 7.03882813 0.5859375 6.25390625 C0 4 0 4 0 0 Z " fill="#8A8259" transform="translate(287,214)"/>
<path d="M0 0 C0.33 1.32 0.66 2.64 1 4 C-2.87564767 7.61139896 -2.87564767 7.61139896 -5 9 C-7.375 8.8125 -7.375 8.8125 -9 8 C-7.35 7.34 -5.7 6.68 -4 6 C-4 5.34 -4 4.68 -4 4 C-3.34 4 -2.68 4 -2 4 C-1.34 2.68 -0.68 1.36 0 0 Z " fill="#9C9971" transform="translate(118,280)"/>
<path d="M0 0 C0.99 0 1.98 0 3 0 C2.40895235 4.84659077 1.02055843 8.60748167 -1 13 C-1.33 13 -1.66 13 -2 13 C-1.85851011 11.3954444 -1.71164314 9.79136233 -1.5625 8.1875 C-1.48128906 7.29417969 -1.40007812 6.40085938 -1.31640625 5.48046875 C-1 3 -1 3 0 0 Z " fill="#AD9D73" transform="translate(326,171)"/>
<path d="M0 0 C0.99 0 1.98 0 3 0 C2.67 1.98 2.34 3.96 2 6 C0.35 6.33 -1.3 6.66 -3 7 C-2.38722388 4.03824877 -1.74627478 2.61941217 0 0 Z " fill="#D1B864" transform="translate(119,282)"/>
<path d="M0 0 C1.15957207 3.47871621 0.77456651 4.34219645 -0.4375 7.6875 C-0.72496094 8.49574219 -1.01242187 9.30398437 -1.30859375 10.13671875 C-1.53675781 10.75160156 -1.76492188 11.36648437 -2 12 C-2.66 12 -3.32 12 -4 12 C-5 9 -5 9 -4.00390625 6.73828125 C-3.52824219 5.93777344 -3.05257813 5.13726562 -2.5625 4.3125 C-2.08941406 3.50425781 -1.61632812 2.69601563 -1.12890625 1.86328125 C-0.75636719 1.24839844 -0.38382812 0.63351563 0 0 Z " fill="#A5986F" transform="translate(323,184)"/>
<path d="M0 0 C1.37432457 3.81756824 0.67975039 7.07255329 0 11 C-0.66 11 -1.32 11 -2 11 C-2 11.66 -2 12.32 -2 13 C-2.66 13 -3.32 13 -4 13 C-3.40895235 8.15340923 -2.02055843 4.39251833 0 0 Z " fill="#A0936E" transform="translate(317,172)"/>
<path d="M0 0 C0.66 0.33 1.32 0.66 2 1 C1.01 3.64 0.02 6.28 -1 9 C-1.66 9 -2.32 9 -3 9 C-3.33 9.99 -3.66 10.98 -4 12 C-4.75 9.3125 -4.75 9.3125 -5 6 C-3.46811263 3.70216894 -1.93905097 1.93905097 0 0 Z " fill="#906935" transform="translate(279,164)"/>
<path d="M0 0 C0.66 0.33 1.32 0.66 2 1 C1.67 1.66 1.34 2.32 1 3 C0.01 3 -0.98 3 -2 3 C-1.67 4.32 -1.34 5.64 -1 7 C-2.98 7 -4.96 7 -7 7 C-7.33 6.34 -7.66 5.68 -8 5 C-6.71475739 4.13619741 -5.42157581 3.28419631 -4.125 2.4375 C-3.04605469 1.72400391 -3.04605469 1.72400391 -1.9453125 0.99609375 C-1.30335938 0.66738281 -0.66140625 0.33867187 0 0 Z " fill="#A7A16E" transform="translate(338,148)"/>
<path d="M0 0 C1.546875 0.8971875 1.546875 0.8971875 3.125 1.8125 C6.36007317 3.66393699 9.64917836 5.36545286 13 7 C9.69693408 8.10102197 8.28414305 7.95067299 5 7 C4.67 6.34 4.34 5.68 4 5 C3.01 4.67 2.02 4.34 1 4 C0.3125 1.9375 0.3125 1.9375 0 0 Z " fill="#9C9577" transform="translate(424,285)"/>
<path d="M0 0 C0.33 0 0.66 0 1 0 C1.33 1.65 1.66 3.3 2 5 C8.93 5.495 8.93 5.495 16 6 C16 6.33 16 6.66 16 7 C10.72 7 5.44 7 0 7 C-1 3 -1 3 0 0 Z " fill="#CECCA1" transform="translate(152,155)"/>
<path d="M0 0 C0.66 0 1.32 0 2 0 C2.33 2.64 2.66 5.28 3 8 C2.34 8 1.68 8 1 8 C-1.13562754 5.86437246 -1.63318342 4.93453261 -2 2 C-1.34 1.34 -0.68 0.68 0 0 Z " fill="#F1E685" transform="translate(383,282)"/>
<path d="M0 0 C0.33 0 0.66 0 1 0 C2.20126412 5.64594138 2.00995423 10.52258088 0 16 C-0.66 16.33 -1.32 16.66 -2 17 C-1.855625 16.05125 -1.71125 15.1025 -1.5625 14.125 C-0.88802722 9.43259653 -0.44623104 4.71865588 0 0 Z " fill="#745C48" transform="translate(487,262)"/>
<path d="M0 0 C0.99 0 1.98 0 3 0 C3 4.95 3 9.9 3 15 C1.1155829 11.2311658 0.66570538 9.31987525 0.375 5.25 C0.30023438 4.26515625 0.22546875 3.2803125 0.1484375 2.265625 C0.09945313 1.51796875 0.05046875 0.7703125 0 0 Z " fill="#B8C18C" transform="translate(392,224)"/>
<path d="M0 0 C1.485 0.99 1.485 0.99 3 2 C3.29296875 4.3828125 3.29296875 4.3828125 3.1875 7.125 C3.16042969 8.03507813 3.13335937 8.94515625 3.10546875 9.8828125 C3.07066406 10.58148438 3.03585937 11.28015625 3 12 C2.34 12 1.68 12 1 12 C0.67 8.04 0.34 4.08 0 0 Z " fill="#D3D097" transform="translate(390,212)"/>
<path d="M0 0 C2.26954631 3.40431947 2.36549949 5.16524202 2.625 9.1875 C2.69976562 10.27417969 2.77453125 11.36085937 2.8515625 12.48046875 C2.92503906 13.72763672 2.92503906 13.72763672 3 15 C2.01 15.33 1.02 15.66 0 16 C0 10.72 0 5.44 0 0 Z " fill="#9A7A49" transform="translate(290,190)"/>
<path d="M0 0 C0.60328125 0.33773438 1.2065625 0.67546875 1.828125 1.0234375 C2.62734375 1.46945312 3.4265625 1.91546875 4.25 2.375 C5.43335937 3.03628906 5.43335937 3.03628906 6.640625 3.7109375 C8.73914197 4.85747823 10.8536077 5.94649552 13 7 C10.36 6.67 7.72 6.34 5 6 C5 5.34 5 4.68 5 4 C3.68 4 2.36 4 1 4 C0.67 2.68 0.34 1.36 0 0 Z " fill="#8B7358" transform="translate(71,283)"/>
<path d="M0 0 C-1.45804169 0.81302325 -2.91644315 1.62540131 -4.375 2.4375 C-5.18710937 2.88996094 -5.99921875 3.34242188 -6.8359375 3.80859375 C-8.20996622 4.5650536 -9.59709261 5.29854631 -11 6 C-11 4.68 -11 3.36 -11 2 C-4.03571429 -1.34821429 -4.03571429 -1.34821429 0 0 Z " fill="#99A27D" transform="translate(438,235)"/>
<path d="M0 0 C0.33 0.66 0.66 1.32 1 2 C0.01 2.495 0.01 2.495 -1 3 C-1.72693904 4.97888961 -2.39816251 6.97954558 -3 9 C-4.65 8.67 -6.3 8.34 -8 8 C-7.04578192 6.85073734 -6.08647955 5.70569459 -5.125 4.5625 C-4.59132813 3.92441406 -4.05765625 3.28632813 -3.5078125 2.62890625 C-2 1 -2 1 0 0 Z " fill="#ADA77F" transform="translate(423,229)"/>
<path d="M0 0 C0.04254356 1.99954746 0.04080783 4.00041636 0 6 C-1 7 -1 7 -4.5625 7.0625 C-5.696875 7.041875 -6.83125 7.02125 -8 7 C-8 6.67 -8 6.34 -8 6 C-6.35 6 -4.7 6 -3 6 C-3 4.35 -3 2.7 -3 1 C-1 0 -1 0 0 0 Z " fill="#A7905D" transform="translate(312,258)"/>
<path d="M0 0 C1.32 0.66 2.64 1.32 4 2 C-2.435 2.495 -2.435 2.495 -9 3 C-9 2.34 -9 1.68 -9 1 C-5.97562661 -0.5121867 -3.33758466 -0.17263369 0 0 Z " fill="#A89872" transform="translate(447,231)"/>
<path d="M0 0 C0.99 0.99 1.98 1.98 3 3 C2.67 3.66 2.34 4.32 2 5 C1.34 5 0.68 5 0 5 C-0.33 5.99 -0.66 6.98 -1 8 C-1.33 8 -1.66 8 -2 8 C-2.125 5.125 -2.125 5.125 -2 2 C-1.34 1.34 -0.68 0.68 0 0 Z " fill="#CBDB89" transform="translate(381,292)"/>
<path d="M0 0 C2.10827055 3.16240582 2.33817465 4.50657469 2.625 8.1875 C2.69976562 9.08855469 2.77453125 9.98960937 2.8515625 10.91796875 C2.90054687 11.60503906 2.94953125 12.29210937 3 13 C0.75393573 11.22555028 0.04918998 10.41647515 -0.29296875 7.51953125 C-0.25816406 6.62621094 -0.22335937 5.73289063 -0.1875 4.8125 C-0.16042969 3.91144531 -0.13335937 3.01039063 -0.10546875 2.08203125 C-0.07066406 1.39496094 -0.03585937 0.70789063 0 0 Z " fill="#BCBA8E" transform="translate(399,206)"/>
<path d="M0 0 C1.65 0 3.3 0 5 0 C4.01 0.495 4.01 0.495 3 1 C3 1.66 3 2.32 3 3 C3.66 3 4.32 3 5 3 C5 3.66 5 4.32 5 5 C3.35 5 1.7 5 0 5 C0 3.35 0 1.7 0 0 Z " fill="#AE8C55" transform="translate(451,295)"/>
<path d="M0 0 C0.66 1.98 1.32 3.96 2 6 C-1.37503669 4.8141763 -3.64722731 3.72426311 -6 1 C-3.92446352 0.4465236 -2.15634036 0 0 0 Z " fill="#846C4A" transform="translate(74,288)"/>
<path d="M0 0 C0.33 0 0.66 0 1 0 C1 1.65 1 3.3 1 5 C1.66 5 2.32 5 3 5 C2.67 6.32 2.34 7.64 2 9 C0.68 7.35 -0.64 5.7 -2 4 C-1.34 2.68 -0.68 1.36 0 0 Z " fill="#6F5A44" transform="translate(62,276)"/>
<path d="M0 0 C0.66 0 1.32 0 2 0 C1.43454163 3.95820859 0.19097652 6.6659053 -2 10 C-2.99 9.67 -3.98 9.34 -5 9 C-4.0409375 7.88625 -4.0409375 7.88625 -3.0625 6.75 C-1.21666593 4.2888879 -0.43930826 2.96533074 0 0 Z " fill="#C5C48E" transform="translate(399,254)"/>
<path d="M0 0 C0.99 0 1.98 0 3 0 C3.33 3.63 3.66 7.26 4 11 C1.6870518 8.6870518 1.50419025 7.52095125 0.875 4.375 C0.70742188 3.55773437 0.53984375 2.74046875 0.3671875 1.8984375 C0.24601562 1.27195313 0.12484375 0.64546875 0 0 Z " fill="#B9C98D" transform="translate(379,172)"/>
<path d="M0 0 C1.98 0 3.96 0 6 0 C6 1.32 6 2.64 6 4 C6.66 4.33 7.32 4.66 8 5 C7.34 5.66 6.68 6.32 6 7 C5.7525 6.38125 5.505 5.7625 5.25 5.125 C3.79371361 2.64931313 2.62187494 2.04874998 0 1 C0 0.67 0 0.34 0 0 Z " fill="#BCCD86" transform="translate(370,161)"/>
<path d="M0 0 C4.75 0.875 4.75 0.875 7 2 C7 2.66 7 3.32 7 4 C5.02 4 3.04 4 1 4 C0.67 2.68 0.34 1.36 0 0 Z " fill="#C2CE88" transform="translate(369,149)"/>
<path d="M0 0 C3.20148213 2.13432142 3.52206739 2.68419896 4.6875 6.125 C4.93886719 6.84945312 5.19023437 7.57390625 5.44921875 8.3203125 C5.72185547 9.15175781 5.72185547 9.15175781 6 10 C5.34 10 4.68 10 4 10 C1.04696841 6.92884715 0.47348414 4.1666604 0 0 Z " fill="#7D6E61" transform="translate(480,238)"/>
<path d="M0 0 C0.66 0 1.32 0 2 0 C3.23076923 5.41538462 3.23076923 5.41538462 2.0625 8.375 C1.711875 8.91125 1.36125 9.4475 1 10 C0.67 10 0.34 10 0 10 C0 6.7 0 3.4 0 0 Z " fill="#D1C98C" transform="translate(129,262)"/>
<path d="M0 0 C0.66 0 1.32 0 2 0 C3.42944945 2.35438733 4.08661261 3.48032433 3.625 6.25 C3.41875 6.8275 3.2125 7.405 3 8 C2.34 7.67 1.68 7.34 1 7 C0.59270772 4.67843403 0.25561323 2.3431213 0 0 Z " fill="#886F53" transform="translate(278,157)"/>
<path d="M0 0 C1.98 0 3.96 0 6 0 C6.66 1.65 7.32 3.3 8 5 C4.62496331 3.8141763 2.35277269 2.72426311 0 0 Z " fill="#A49C76" transform="translate(423,297)"/>
<path d="M0 0 C0 2.62113708 -0.31292445 4.50935112 -1 7 C-2.65 7.33 -4.3 7.66 -6 8 C-4.768606 4.30581799 -2.79208646 2.64890254 0 0 Z " fill="#B6BE8D" transform="translate(380,282)"/>
<path d="M0 0 C3.35620271 1.38877354 5.07298728 2.91677965 7 6 C7 6.66 7 7.32 7 8 C4 7 4 7 2.9375 5 C2.628125 4.34 2.31875 3.68 2 3 C1.34 2.67 0.68 2.34 0 2 C0 1.34 0 0.68 0 0 Z " fill="#7A6B51" transform="translate(64,275)"/>
<path d="M0 0 C3.3 0.33 6.6 0.66 10 1 C10 1.66 10 2.32 10 3 C3.375 2.25 3.375 2.25 0 0 Z " fill="#988664" transform="translate(451,232)"/>
<path d="M0 0 C2.31 1.65 4.62 3.3 7 5 C4 6 4 6 1.8125 5.0625 C1.214375 4.711875 0.61625 4.36125 0 4 C0 2.68 0 1.36 0 0 Z " fill="#7E6E5B" transform="translate(469,227)"/>
<path d="M0 0 C-0.33 0.99 -0.66 1.98 -1 3 C-3.31 3.33 -5.62 3.66 -8 4 C-5.29881977 1.17603885 -4.05589853 0 0 0 Z " fill="#A69A7D" transform="translate(432,225)"/>
<path d="M0 0 C1.5 1 1.5 1 3 3 C3.27345479 5.71846235 3.13491285 8.25677199 3 11 C0.87953208 7.46588679 0.46800711 4.05606165 0 0 Z " fill="#B3CE8F" transform="translate(383,183)"/>
<path d="M0 0 C0.33 0.99 0.66 1.98 1 3 C0.01 3.495 0.01 3.495 -1 4 C-1.99 3.67 -2.98 3.34 -4 3 C-4.33 3.99 -4.66 4.98 -5 6 C-5 4.35 -5 2.7 -5 1 C-3 0 -3 0 0 0 Z " fill="#876941" transform="translate(277,158)"/>
<path d="M0 0 C0.66 0.33 1.32 0.66 2 1 C1 2.5 1 2.5 -1 4 C-3.71846235 4.27345479 -6.25677199 4.13491285 -9 4 C-9 3.67 -9 3.34 -9 3 C-7.02 3 -5.04 3 -3 3 C-3 2.34 -3 1.68 -3 1 C-2.01 0.67 -1.02 0.34 0 0 Z " fill="#A5976A" transform="translate(105,289)"/>
<path d="M0 0 C0.99 0.33 1.98 0.66 3 1 C3 1.66 3 2.32 3 3 C1.37373596 4.38232443 -0.2925002 5.71937515 -2 7 C-2.33 5.68 -2.66 4.36 -3 3 C-2.01 3 -1.02 3 0 3 C0 2.01 0 1.02 0 0 Z " fill="#C3BF86" transform="translate(401,268)"/>
<path d="M0 0 C-3.50776784 1.60355101 -6.14354879 2.22036864 -10 2 C-10 1.34 -10 0.68 -10 0 C-6.33694766 -0.74926071 -3.57644848 -1.2380014 0 0 Z " fill="#B79E69" transform="translate(443,224)"/>
<path d="M0 0 C0.66 0.33 1.32 0.66 2 1 C1.1875 3.4375 1.1875 3.4375 0 6 C-0.99 6.33 -1.98 6.66 -3 7 C-3 5.68 -3 4.36 -3 3 C-2.01 3 -1.02 3 0 3 C0 2.01 0 1.02 0 0 Z " fill="#D7E07C" transform="translate(386,163)"/>
<path d="M0 0 C0 3.41099168 -0.49145406 6.63088314 -1 10 C-1.66 10 -2.32 10 -3 10 C-4 7 -4 7 -2.625 3.875 C-1 1 -1 1 0 0 Z " fill="#B39E71" transform="translate(327,156)"/>
</svg>
